<svg width="41" height="28" viewBox="0 0 41 28" fill="none" xmlns="http://www.w3.org/2000/svg">
<g clip-path="url(#clip0_2014_3971)">
<path d="M20.3054 23.7718C20.3054 22.6709 21.2043 21.8146 22.2666 21.8146C23.3289 21.8146 24.2277 22.7117 24.2277 23.7718C24.2277 24.832 23.3289 25.729 22.2666 25.729C21.2043 25.729 20.3054 24.8727 20.3054 23.7718ZM28.3544 23.7718C28.3544 22.6709 29.2532 21.8146 30.3155 21.8146C31.4187 21.8146 32.2767 22.7117 32.2767 23.7718C32.2767 24.832 31.3778 25.729 30.3155 25.729C29.2532 25.7698 28.3544 24.8727 28.3544 23.7718ZM9.72329 23.7718C9.72329 22.6709 10.6222 21.8146 11.6845 21.8146C12.7876 21.8146 13.6456 22.7117 13.6456 23.7718C13.6456 24.832 12.7468 25.729 11.6845 25.729C10.5813 25.7698 9.72329 24.8727 9.72329 23.7718ZM1.67434 23.7718C1.67434 22.6709 2.57321 21.8146 3.63551 21.8146C4.73866 21.8146 5.59667 22.7117 5.59667 23.7718C5.59667 24.832 4.6978 25.729 3.63551 25.729C2.57321 25.7698 1.67434 24.8727 1.67434 23.7718ZM17.9357 20.3059H16.2196V27.1969H17.9357V20.3059ZM5.63753 27.1969H7.35355V20.3059H5.63753V20.8768C5.06552 20.469 4.37094 20.2244 3.59465 20.2244C1.63349 20.2244 0.0400391 21.8146 0.0400391 23.7718C0.0400391 25.7698 1.63349 27.3192 3.59465 27.3192C4.37094 27.3192 5.06552 27.0746 5.63753 26.6668V27.1969ZM32.3175 27.1969H34.0336V20.3059H32.3175V20.8768C31.7455 20.469 31.051 20.2244 30.2747 20.2244C28.3135 20.2244 26.72 21.8146 26.72 23.7718C26.72 25.7698 28.3135 27.3192 30.2747 27.3192C31.051 27.3192 31.7455 27.0746 32.3175 26.6668V27.1969ZM34.6464 24.9543C34.6873 26.3406 35.8721 27.3192 37.8742 27.3192C39.5085 27.3192 40.8568 26.6261 40.8568 25.0766C40.8568 23.9757 40.2439 23.3641 38.8548 23.0786L37.7516 22.8748C37.057 22.7524 36.5667 22.5893 36.5667 22.1816C36.5667 21.7331 37.057 21.5292 37.629 21.5292C38.487 21.5292 38.8548 21.9777 38.8548 22.467H40.5708C40.4891 21.1214 39.3859 20.2244 37.629 20.2244C35.8313 20.2244 34.769 21.203 34.769 22.5078C34.769 24.0572 36.0356 24.3427 37.1387 24.5465L38.0376 24.7096C38.6913 24.832 38.9773 25.0358 38.9773 25.4028C38.9773 25.729 38.6505 26.096 37.8742 26.096C36.7302 26.096 36.4033 25.5251 36.3624 24.9951H34.6464V24.9543ZM13.6456 17.941V20.836C13.0736 20.4283 12.379 20.1836 11.6027 20.1836C9.64157 20.1836 8.04813 21.7738 8.04813 23.731C8.04813 25.729 9.64157 27.2785 11.6027 27.2785C12.379 27.2785 13.0736 27.0338 13.6456 26.6261V27.1153H15.3616V17.941H13.6456ZM24.2686 17.941V20.836C23.6966 20.4283 23.002 20.1836 22.2257 20.1836C20.2645 20.1836 18.6711 21.7738 18.6711 23.731C18.6711 25.729 20.2645 27.2785 22.2257 27.2785C23.002 27.2785 23.6966 27.0338 24.2686 26.6261V27.1153H25.9846V17.941H24.2686ZM4.45266 15.9022L5.63753 17.941H13.6456L10.4587 12.4364L4.45266 15.9022ZM17.9357 19.6535V17.941H24.2686L17.5271 6.32012L11.521 9.74522L16.2196 17.941V19.6535H17.9357ZM26.8018 17.941H34.8507L24.4729 0L18.4668 3.46587L26.8018 17.941Z" fill="#7B8AA7"/>
</g>
<defs>
<clipPath id="clip0_2014_3971">
<rect width="40.8576" height="27.36" fill="white"/>
</clipPath>
</defs>
</svg>
