<svg width="22" height="27" viewBox="0 0 22 27" fill="none" xmlns="http://www.w3.org/2000/svg">
<path d="M20.957 9.07529C19.1845 10.1706 18.0897 12.0482 18.0897 14.1345C18.0897 16.4816 19.4973 18.62 21.6347 19.5067C21.2176 20.8627 20.592 22.1145 19.8101 23.262C18.6632 24.8788 17.4641 26.5478 15.6916 26.5478C13.9192 26.5478 13.3979 25.5047 11.3126 25.5047C9.27945 25.5047 8.5496 26.6 6.88139 26.6C5.21317 26.6 4.06627 25.0875 2.76298 23.2098C1.04263 20.602 0.0521317 17.5769 0 14.3953C0 9.23177 3.33643 6.46745 6.67286 6.46745C8.44534 6.46745 9.90503 7.6149 10.9998 7.6149C12.0424 7.6149 13.7106 6.41529 15.6916 6.41529C17.7769 6.36314 19.7579 7.35412 20.957 9.07529ZM14.7533 4.22471C15.6395 3.18157 16.1087 1.87765 16.1608 0.521569C16.1608 0.365098 16.1608 0.156471 16.1087 0C14.5969 0.156471 13.1893 0.886667 12.1988 2.03412C11.3126 3.0251 10.7913 4.27686 10.7391 5.63294C10.7391 5.78941 10.7391 5.94588 10.7913 6.10235C10.8955 6.10235 11.0519 6.15451 11.1562 6.15451C12.5637 6.0502 13.867 5.32 14.7533 4.22471Z" fill="#7B8AA7"/>
</svg>
