<svg width="114" height="18" viewBox="0 0 114 18" fill="none" xmlns="http://www.w3.org/2000/svg">
<g clip-path="url(#clip0_2014_4031)">
<path fill-rule="evenodd" clip-rule="evenodd" d="M107.225 7.71161C105.641 7.2422 104.764 5.51544 105.27 3.85573C105.438 3.28573 105.759 2.79955 106.163 2.41397C106.163 2.41397 107.225 1.39132 108.894 1.96132C108.877 1.96132 108.86 1.96132 108.843 1.96132C107.832 1.96132 107.023 2.84985 107.023 3.95632C107.023 5.06279 107.849 5.95132 108.843 5.95132C109.636 5.95132 110.327 5.39808 110.563 4.61014C110.563 4.61014 110.63 4.44249 110.664 4.17426C110.664 4.12397 110.681 4.07367 110.681 4.07367C110.748 3.38632 110.613 2.14573 109.248 1.17338C107.394 -0.117505 104.764 -0.000152105 104.764 -0.000152105C100.112 -0.000152105 96.3359 3.80544 96.3359 8.51632C96.3359 13.2104 100.112 17.0328 104.764 17.0328H111.018V5.58249C110.512 7.2422 108.81 8.19779 107.225 7.71161Z" fill="#7B8AA7"/>
<path fill-rule="evenodd" clip-rule="evenodd" d="M4.70587 9.384H11.1787V7.25488C11.1787 7.25488 5.86897 7.25488 5.161 7.25488C1.97513 7.27165 0.00292969 9.26665 0.00292969 12.0999C0.00292969 14.9164 2.12684 16.9114 5.29585 16.8946H11.1619V14.7822H4.62159C3.67763 14.7822 2.44711 13.6087 2.44711 12.0831C2.44711 10.5575 3.67763 9.384 4.70587 9.384Z" fill="#7B8AA7"/>
<path fill-rule="evenodd" clip-rule="evenodd" d="M38.2988 16.8994H40.6924V4.8623H38.2988V16.8994ZM41.8218 9.53966C42.2095 9.42231 43.3558 8.78525 45.0583 9.12054C46.7776 9.45583 47.9407 11.4005 45.6988 16.3294C45.328 17 46.3562 17.1005 46.3562 17.1005L48.0081 16.8994C48.0081 16.8994 50.7557 11.1658 48.5981 8.73495C46.4405 6.30407 42.0072 7.27642 41.7207 7.46083C41.1138 7.86319 41.4341 9.65701 41.8218 9.53966ZM83.7943 7.27642H80.4399V5.46583H77.9957V7.27642H75.8887V9.48936H77.9957V16.8994H80.4399V9.48936H83.7943V7.27642ZM93.2171 7.27642H89.8626V5.46583H87.4184V7.27642H85.3114V9.48936H87.4184V16.8994H89.8626V9.48936H93.2171V7.27642ZM25.2182 10.3611C25.2182 8.95289 23.9877 7.25966 21.611 7.25966H13.7727V9.38878H21.5773C22.3358 9.38878 22.7741 9.79113 22.7741 10.3444V14.787H15.8461C15.1212 14.787 14.6493 14.3344 14.6493 13.7979C14.6493 13.2614 15.0875 12.8423 15.8461 12.8423H21.9144V10.8138C21.9144 10.8138 17.4811 10.8138 15.8292 10.8138C13.4356 10.8138 12.2051 12.507 12.2051 13.9152C12.2051 15.6923 13.857 16.8994 15.8629 16.8994H25.2014L25.2182 10.3611ZM63.28 10.3611C63.28 8.95289 62.0495 7.25966 59.6728 7.25966H51.8514V9.38878H59.6559C60.4145 9.38878 60.8527 9.79113 60.8527 10.3444V14.787H53.9247C53.1999 14.787 52.7279 14.3344 52.7279 13.7979C52.7279 13.2614 53.1662 12.8423 53.9247 12.8423H60.0099V10.8138C60.0099 10.8138 55.5767 10.8138 53.9247 10.8138C51.5311 10.8138 50.3006 12.507 50.3006 13.9152C50.3006 15.6923 51.9525 16.8994 53.9584 16.8994H63.2969L63.28 10.3611ZM26.7353 16.8994H29.1458V7.27642H26.7353V16.8994ZM30.2583 9.57319C30.646 9.45583 31.236 8.81878 32.9553 9.15407C34.051 9.37201 34.7253 10.1432 34.641 12.0208C34.6241 12.5405 36.9335 12.3561 36.9335 11.9538C36.9503 10.4114 37.1357 9.32172 35.8041 8.09789C34.169 6.60583 30.4437 7.30995 30.1403 7.49436C29.5503 7.89672 29.8706 9.69054 30.2583 9.57319ZM64.7971 16.8994H67.2076V7.27642H64.7971V16.8994ZM68.3201 9.57319C68.7078 9.45583 69.2978 8.81878 71.0171 9.15407C72.1128 9.37201 72.7871 10.1432 72.7028 12.0208C72.6859 12.5405 74.9953 12.3561 74.9953 11.9538C75.0121 10.4114 75.1975 9.32172 73.8659 8.09789C72.2308 6.60583 68.5055 7.30995 68.219 7.49436C67.6122 7.89672 67.9324 9.69054 68.3201 9.57319Z" fill="#7B8AA7"/>
<path d="M112.873 14.6367C112.249 14.6367 111.743 15.1397 111.743 15.76C111.743 16.3802 112.249 16.8832 112.873 16.8832C113.496 16.8832 114.002 16.3802 114.002 15.76C114.002 15.1397 113.496 14.6367 112.873 14.6367ZM112.873 16.682C112.367 16.682 111.962 16.2629 111.962 15.76C111.962 15.257 112.367 14.8379 112.873 14.8379C113.378 14.8379 113.783 15.257 113.783 15.76C113.783 16.2629 113.378 16.682 112.873 16.682Z" fill="#7B8AA7"/>
<path d="M113.394 15.4753C113.394 15.2238 113.243 15.1064 112.939 15.1064H112.434V16.4141H112.636V15.8441H112.788L113.158 16.4141H113.411L113.024 15.8441C113.243 15.8106 113.394 15.71 113.394 15.4753ZM112.653 15.6597V15.2909H112.956C113.091 15.2909 113.192 15.3412 113.192 15.4585C113.192 15.5926 113.091 15.6597 112.889 15.6597H112.653Z" fill="#7B8AA7"/>
</g>
<defs>
<clipPath id="clip0_2014_4031">
<rect width="114" height="17.1" fill="white"/>
</clipPath>
</defs>
</svg>
