<svg width="89" height="16" viewBox="0 0 89 16" fill="none" xmlns="http://www.w3.org/2000/svg">
<g clip-path="url(#clip0_2014_3973)">
<mask id="mask0_2014_3973" style="mask-type:luminance" maskUnits="userSpaceOnUse" x="0" y="0" width="89" height="16">
<path d="M88.6667 0H0V15.96H88.6667V0Z" fill="white"/>
</mask>
<g mask="url(#mask0_2014_3973)">
<path d="M85.3499 9.95864V12.9763C84.68 13.4457 84.01 13.4792 83.5411 13.1104C83.0386 12.6745 82.9046 11.8698 83.2731 11.1322L85.3499 9.95864ZM87.9627 13.1775L87.7952 13.1439C87.6612 13.1104 87.4267 12.8086 87.4267 12.3057V8.38276C87.4267 7.24276 87.0583 6.371 86.4218 5.86805C85.8189 5.43217 84.9814 5.36511 84.01 5.66688C82.8711 6.0357 81.1293 7.54452 80.8613 7.87982L80.7943 7.94688L80.8278 8.04747C80.8613 8.14805 80.9953 8.34923 81.0623 8.41629L81.1293 8.44982H83.0386C83.0386 8.44982 83.0386 7.98041 83.0386 7.91335C83.0386 7.14217 83.5411 6.77335 83.9765 6.67276C84.412 6.6057 84.7135 6.63923 84.9144 6.80688C85.2159 7.04158 85.3499 7.61158 85.3499 8.41629V8.91923L81.3303 10.6963L81.2633 10.7298L81.2298 10.7969C80.8613 11.9369 80.9283 12.7751 81.4642 13.3786C82.3017 14.2839 84.3115 14.4181 87.2592 13.7475C87.4937 13.6804 87.9627 13.6469 87.9627 13.6469C87.9627 13.7475 87.9627 13.1775 87.9627 13.1775ZM73.3915 12.1716C72.9225 13.0098 71.9176 13.4792 71.1472 13.2445C70.3767 13.0098 69.9413 12.2051 69.9413 10.8975V7.34335L70.0418 7.30982C70.5107 7.07511 71.3816 6.6057 72.554 7.20923C73.1905 7.54452 73.6594 8.14805 73.8939 8.8857C74.1954 9.92511 73.9944 11.1322 73.3915 12.1716ZM75.7363 7.54452C75.1333 6.47158 74.3629 5.83452 73.425 5.59982C72.1186 5.26452 70.7787 5.86805 69.9748 6.33747V1.20747L69.7068 1.03982L66.893 1.60982V2.07923C66.893 2.07923 67.362 2.44805 67.429 2.51511C67.764 2.88394 67.764 3.42041 67.764 3.7557V13.3786V13.5128L67.8644 13.5798C69.4723 14.4181 71.5826 14.5186 73.1235 13.8816C74.8318 13.1439 75.5688 11.9369 75.9037 11.0651C76.3727 9.69041 76.1382 8.3157 75.7363 7.54452ZM77.3106 14.1163V8.14805C77.3106 7.81276 77.3106 7.27629 76.9756 6.90747C76.9086 6.84041 76.4397 6.47158 76.4397 6.47158V6.0357L79.2534 5.4657L79.4879 5.63335V12.2722C79.5214 13.0098 79.7559 13.4122 80.2249 13.5128L80.3588 13.5463V14.1163H77.3106ZM77.1766 2.81688C77.1766 1.30805 79.4544 1.30805 79.4544 2.81688C79.4544 4.3257 77.1766 4.3257 77.1766 2.81688ZM34.9034 13.3451C33.195 13.3451 32.726 12.0039 32.726 9.82452C32.726 8.21511 33.195 6.30394 34.9034 6.30394C36.6117 6.30394 37.0807 8.21511 37.0807 9.82452C37.0807 12.0039 36.6117 13.3451 34.9034 13.3451ZM39.5259 9.85805C39.5259 8.55041 39.124 7.44394 38.3201 6.67276C37.4826 5.83452 36.3102 5.39864 34.9034 5.39864C32.2571 5.39864 30.2808 7.30982 30.2808 9.85805C30.2808 12.5739 32.0896 14.3175 34.9034 14.3175C36.2432 14.3175 37.4156 13.8816 38.2531 13.0098C39.057 12.2051 39.5259 11.0651 39.5259 9.85805ZM66.826 13.4792C66.3571 13.3786 66.0891 12.9428 66.0891 12.2386V8.21511C66.0891 7.27629 65.6201 5.53276 63.7778 5.53276C62.4044 5.53276 61.5 6.33747 61.0645 6.77335C60.7631 6.13629 60.1936 5.53276 59.0882 5.53276C58.2173 5.53276 57.4134 5.86805 56.6764 6.50511V5.66688L56.442 5.49923L53.6282 6.06923V6.53864C53.6282 6.53864 54.0972 6.90747 54.1642 6.97452C54.5326 7.34335 54.5326 7.91335 54.5326 8.24864V14.1498H57.5809V13.5798L57.4134 13.5463C56.9444 13.4457 56.6764 13.0098 56.6764 12.3057V7.54452C57.2124 7.07511 57.7483 7.00805 58.3178 7.04158C58.7868 7.07511 59.2557 7.41041 59.2557 9.08688V14.1163H62.3039V13.5463L62.17 13.5128C61.6675 13.4122 61.433 12.9763 61.433 12.2722V8.24864C61.433 8.14805 61.3995 7.81276 61.366 7.57805C61.902 7.10864 62.4379 7.00805 63.0409 7.07511C63.5098 7.10864 63.9788 7.44394 63.9788 9.12041V14.1498H67.027V13.5798L66.826 13.4792ZM52.9248 13.4792C52.4223 13.3451 52.1543 12.9428 52.1543 12.2386V5.63335L51.9199 5.4657L49.1061 6.0357V6.50511C49.1061 6.50511 49.5751 6.87394 49.6421 6.941C50.0105 7.30982 50.0105 7.87982 50.0105 8.21511V12.1381C49.1061 12.8422 48.2352 13.0769 47.6657 12.8086C47.1968 12.5739 46.9288 12.0375 46.9288 11.2663V5.66688L46.6608 5.49923L43.8471 6.06923V6.53864C43.8471 6.53864 44.316 6.90747 44.383 6.97452C44.7515 7.34335 44.7515 7.91335 44.7515 8.24864V11.6016C44.785 12.2386 44.8185 12.4733 44.8855 12.7416C45.053 13.4457 45.4884 13.9822 46.0914 14.1833C47.0963 14.5522 48.5032 14.1833 50.0105 13.211V14.1163H53.0923V13.5463L52.9248 13.4792ZM40.5309 14.1833V3.78923C40.5309 3.45394 40.5309 2.88394 40.1624 2.51511C39.9949 2.38099 39.8274 2.21335 39.6264 2.07923V1.64335L42.4402 1.07335L42.7082 1.24099C42.7082 1.24099 42.7082 12.2386 42.7082 12.4063C42.7417 13.4792 43.4786 13.5463 43.4786 13.5463V14.2169L40.5309 14.1833ZM29.4098 10.9981C29.4768 11.0986 29.8118 11.6016 29.8118 11.6016C29.6108 12.3728 29.1419 13.4122 29.1419 13.4122H29.0749C27.2325 14.1498 24.4188 14.7533 21.3705 13.5128C19.5617 12.7751 18.2553 11.3333 17.7194 9.48923C17.1834 7.54452 17.5519 5.4657 18.7243 3.85629C20.0307 2.07923 22.141 1.10688 25.0217 0.93923C26.0936 0.872171 28.3379 1.17394 29.5438 1.87805L29.6443 1.94511C29.6443 1.94511 29.6778 4.96276 29.6443 5.09688L29.6108 5.231L28.7064 5.26452L28.6729 4.99629C28.5054 4.12452 28.137 1.77747 24.8542 1.94511C23.4474 2.01217 22.342 2.71629 21.471 3.82276C20.4661 5.16394 20.1312 7.04158 20.6001 9.08688C21.0356 11.0651 22.5429 12.3392 23.7153 12.8086C24.2178 13.0098 25.7587 13.3451 26.9311 12.8086C27.9695 12.3392 28.9409 11.5681 29.4098 10.9981ZM11.3884 13.1775C11.8239 12.7416 11.8239 12.0375 11.3884 11.6351L11.0535 11.2663C10.618 10.8304 9.91456 10.8304 9.5126 11.2663L7.03382 13.7475C6.59836 14.1833 6.59836 14.8875 7.03382 15.2898L7.40228 15.6586C7.83775 16.0945 8.54118 16.0945 8.94315 15.6586L11.3884 13.1775ZM9.17763 10.931C9.61309 10.4951 9.61309 9.791 9.17763 9.38864L8.80916 9.01982C8.3737 8.58394 7.70376 8.58394 7.2683 9.01982L4.78952 11.501C4.35405 11.9369 4.35405 12.6075 4.78952 13.0433L5.15798 13.4122C5.59344 13.8481 6.26339 13.8481 6.69885 13.4122L9.17763 10.931ZM11.3884 4.45982C11.8239 4.02394 11.8239 3.35335 11.3884 2.91747L11.0535 2.54864C10.618 2.11276 9.94806 2.11276 9.5126 2.54864L7.00032 5.02982C6.56486 5.4657 6.56486 6.16982 7.00032 6.57217L7.36879 6.941C7.80425 7.37688 8.50769 7.37688 8.90965 6.941L11.3884 4.45982ZM9.17763 2.24688C9.61309 1.81099 9.61309 1.10688 9.17763 0.704524L8.80916 0.335701C8.3737 -0.100182 7.70376 -0.100182 7.2683 0.335701L4.78952 2.81688C4.35405 3.25276 4.35405 3.95688 4.78952 4.35923L5.15798 4.72805C5.59344 5.16394 6.26339 5.16394 6.69885 4.72805L9.17763 2.24688ZM13.2978 4.69452C12.8623 4.25864 12.1924 4.25864 11.7569 4.69452L11.3884 5.06335C10.953 5.49923 10.953 6.16982 11.3884 6.6057L13.8672 9.08688C14.3027 9.52276 15.0061 9.52276 15.4081 9.08688L15.7765 8.71805C16.212 8.28217 16.212 7.61158 15.7765 7.1757L13.2978 4.69452ZM11.0535 6.90747C10.618 6.47158 9.94806 6.47158 9.5126 6.90747L9.14413 7.27629C8.70867 7.71217 8.70867 8.41629 9.14413 8.81864L11.6229 11.2998C12.0584 11.7357 12.7618 11.7357 13.1638 11.2998L13.5322 10.931C13.9677 10.4951 13.9677 9.791 13.5322 9.38864L11.0535 6.90747ZM4.45454 4.72805C4.01908 4.29217 3.34914 4.29217 2.91368 4.72805L2.54521 5.09688C2.10975 5.53276 2.10975 6.23688 2.54521 6.63923L5.02399 9.12041C5.45946 9.55629 6.16289 9.55629 6.56486 9.12041L6.93333 8.75158C7.36879 8.3157 7.36879 7.61158 6.93333 7.20923L4.45454 4.72805ZM4.68902 9.4557C5.12449 9.89158 5.12449 10.5622 4.68902 10.9981L4.35405 11.3669C3.91859 11.8028 3.24865 11.8028 2.81319 11.3669L0.334409 8.8857C-0.101053 8.44982 -0.101053 7.7457 0.334409 7.34335L0.669379 6.97452C1.10484 6.53864 1.77478 6.53864 2.21024 6.97452L4.68902 9.4557Z" fill="#7B8AA7"/>
</g>
</g>
<defs>
<clipPath id="clip0_2014_3973">
<rect width="88.6667" height="15.96" fill="white"/>
</clipPath>
</defs>
</svg>
