<svg width="49" height="23" viewBox="0 0 49 23" fill="none" xmlns="http://www.w3.org/2000/svg">
<g clip-path="url(#clip0_2014_3980)">
<path d="M17.1 6.79149H15.6932V1.23702H13.6557V0.0242553H19.1374V1.23702H17.1V6.79149ZM21.0536 3.75957V6.79149H19.6468V0.0242553H21.0536V2.59532H23.6974V0.0242553H25.1043V6.79149H23.6974V3.75957H21.0536ZM30.5617 1.21277H27.0204V2.64383H30.1494V3.83234H27.0204V5.60298H30.5617V6.79149H25.7106V0.0242553H30.5617V1.21277ZM4.19617 7.83447H5.50596V14.5774H4.09915L1.33404 9.77489H1.30979V14.5774H0V7.83447H1.47957L4.17192 12.5157H4.19617V7.83447ZM9.38681 7.64043C10.2843 7.64043 12.637 8.02851 12.637 11.1817C12.637 14.3349 10.2843 14.723 9.38681 14.723C8.48936 14.723 6.1366 14.3349 6.1366 11.1817C6.1366 8.02851 8.48936 7.64043 9.38681 7.64043ZM9.38681 13.5587C10.1387 13.5587 11.206 13.0979 11.206 11.206C11.206 9.31404 10.1387 8.85319 9.38681 8.85319C8.63489 8.85319 7.5434 9.31404 7.5434 11.206C7.5434 13.0979 8.63489 13.5587 9.38681 13.5587ZM22.5817 14.5774H21.1749V9.02298H19.1132V7.83447H24.6191V9.02298H22.5817V14.5774ZM26.5353 11.5455V14.5774H25.1285V7.83447H26.5353V10.3813H29.1549V7.83447H30.5617V14.5774H29.1549V11.5455H26.5353ZM13.2191 7.83447H16.6391C18.434 7.83447 18.7736 9.16851 18.7736 9.75064C18.7736 10.5026 18.3855 11.1332 17.7306 11.3515C18.2885 11.594 18.5796 11.8123 18.5796 13.0736C18.5796 14.0681 18.5796 14.3106 18.8706 14.4077V14.5774H17.3183C17.2213 14.2621 17.1728 13.9226 17.1728 13.2191C17.1728 12.2974 17.1243 11.9336 16.0813 11.9336H14.626V14.5774H13.2434L13.2191 7.83447ZM16.2511 10.7936C16.9787 10.7936 17.3426 10.5268 17.3426 9.87191C17.3426 9.50809 17.1728 8.99872 16.3481 8.99872H14.6017V10.7936H16.2511ZM9.94468 22.5817H8.51362V15.6447H13.4374V16.8817H9.94468V18.434H13.0009V19.6711H9.94468V22.5817ZM14.0923 22.5817H12.5643L15.0383 15.6447H16.7119L19.1617 22.5817H17.5851L17.1485 21.1506H14.5532L14.0923 22.5817ZM14.9413 19.9621H16.7119L15.863 17.2213H15.8387L14.9413 19.9621ZM23.5762 17.9489C23.4549 17.5366 23.2366 16.7604 22.0481 16.7604C21.3447 16.7604 20.326 17.2213 20.326 19.186C20.326 20.423 20.8111 21.5387 22.0481 21.5387C22.8485 21.5387 23.4064 21.0779 23.5762 20.2289H25.0315C24.7404 21.7328 23.7702 22.7757 22.0238 22.7757C20.1804 22.7757 18.8706 21.5387 18.8706 19.1374C18.8706 16.7119 20.2774 15.4749 22.0481 15.4749C24.1098 15.4749 24.9587 16.906 25.0315 17.9247H23.5762V17.9489ZM30.586 16.8817H26.9477V18.337H30.1736V19.5498H26.9477V21.3447H30.586V22.5817H25.6136V15.6447H30.586V16.8817ZM5.89404 19.0647C6.91277 19.0647 7.7617 19.8651 7.7617 20.9323C7.7617 21.9996 6.91277 22.8 5.89404 22.8C4.87532 22.8 4.00213 21.9996 4.00213 20.9323C4.00213 19.8651 4.87532 19.0647 5.89404 19.0647ZM5.89404 22.5332C6.76723 22.5332 7.42213 21.854 7.42213 20.9323C7.42213 20.0349 6.74298 19.3557 5.89404 19.3557C5.02085 19.3557 4.3417 20.0349 4.3417 20.9323C4.3417 21.8298 5.02085 22.5332 5.89404 22.5332ZM5.16638 19.8409H6.01532C6.52468 19.8409 6.79149 20.0349 6.79149 20.4715C6.79149 20.8596 6.54894 21.0294 6.20936 21.0779L6.84 22.0481H6.47617L5.86979 21.1021H5.50596V22.0481H5.16638V19.8409ZM5.50596 20.8111H5.86979C6.16085 20.8111 6.45191 20.7868 6.45191 20.4472C6.45191 20.1562 6.20936 20.1077 5.96681 20.1077H5.50596V20.8111ZM35.1945 22.1451V18.5796C35.1945 16.9787 33.8847 15.6689 32.2838 15.6689H31.9685V22.606H35.1945V22.1451ZM48.5106 22.1451V16.2268C48.5106 7.2766 41.234 0 32.2838 0H32.114H32.1383H31.9685V6.79149H32.4294C37.6928 6.86426 41.986 11.1574 42.0587 16.4209V22.5574H48.5106V22.1451Z" fill="#7B8AA7"/>
<path d="M41.0168 22.3882V16.5184C40.9926 11.8371 37.2572 8.029 32.6245 7.83496H32.0908H32.1151H31.9453V14.6022H32.2606C34.4436 14.6022 36.19 16.3728 36.19 18.5316V22.5579H41.0168V22.3882Z" fill="#7B8AA7"/>
</g>
<defs>
<clipPath id="clip0_2014_3980">
<rect width="48.5106" height="22.8" fill="white"/>
</clipPath>
</defs>
</svg>
