<svg width="63" height="18" viewBox="0 0 63 18" fill="none" xmlns="http://www.w3.org/2000/svg">
<mask id="mask0_2014_3985" style="mask-type:luminance" maskUnits="userSpaceOnUse" x="0" y="0" width="19" height="18">
<path d="M0 0.00195312H5.94589L9.43973 5.76743L12.9371 0.00195312H18.8506L12.1158 9.93632V17.0997H6.75066V9.93632L0 0.00195312Z" fill="white"/>
</mask>
<g mask="url(#mask0_2014_3985)">
<mask id="mask1_2014_3985" style="mask-type:luminance" maskUnits="userSpaceOnUse" x="0" y="-1" width="63" height="19">
<path d="M0 17.0995H62.5V-0.0224609H0V17.0995Z" fill="white"/>
</mask>
<g mask="url(#mask1_2014_3985)">
<path d="M-0.154297 -0.150391H19.004V17.251H-0.154297V-0.150391Z" fill="#7B8AA7"/>
</g>
</g>
<mask id="mask2_2014_3985" style="mask-type:luminance" maskUnits="userSpaceOnUse" x="20" y="0" width="15" height="18">
<path d="M20.0654 0.00195312H34.4134V4.21507H25.4323V6.6518H33.2696V10.5053H25.4341V12.942H34.6734V17.1003H20.0672V0.00252888" fill="white"/>
</mask>
<g mask="url(#mask2_2014_3985)">
<mask id="mask3_2014_3985" style="mask-type:luminance" maskUnits="userSpaceOnUse" x="0" y="-1" width="63" height="19">
<path d="M0 17.0995H62.5V-0.0224609H0V17.0995Z" fill="white"/>
</mask>
<g mask="url(#mask3_2014_3985)">
<path d="M19.9121 -0.150391H34.8284V17.251H19.9121V-0.150391Z" fill="#7B8AA7"/>
</g>
</g>
<mask id="mask4_2014_3985" style="mask-type:luminance" maskUnits="userSpaceOnUse" x="36" y="0" width="17" height="18">
<path d="M36.4617 0.00176326H52.734V4.2137H47.2745V17.0978H41.9194V4.21546H36.46V0" fill="white"/>
</mask>
<g mask="url(#mask4_2014_3985)">
<mask id="mask5_2014_3985" style="mask-type:luminance" maskUnits="userSpaceOnUse" x="0" y="-1" width="63" height="19">
<path d="M0 17.0995H62.5V-0.0224609H0V17.0995Z" fill="white"/>
</mask>
<g mask="url(#mask5_2014_3985)">
<path d="M36.3076 -0.150391H52.8901V17.251H36.3076V-0.150391Z" fill="#7B8AA7"/>
</g>
</g>
<mask id="mask6_2014_3985" style="mask-type:luminance" maskUnits="userSpaceOnUse" x="54" y="0" width="7" height="18">
<path d="M54.6705 0.00195312H60.0357V17.0997H54.6705L54.667 0.00195312" fill="white"/>
</mask>
<g mask="url(#mask6_2014_3985)">
<mask id="mask7_2014_3985" style="mask-type:luminance" maskUnits="userSpaceOnUse" x="0" y="-1" width="63" height="19">
<path d="M0 17.0995H62.5V-0.0224609H0V17.0995Z" fill="white"/>
</mask>
<g mask="url(#mask7_2014_3985)">
<path d="M54.5176 -0.150391H60.1928V17.251H54.5176V-0.150391Z" fill="#7B8AA7"/>
</g>
</g>
<mask id="mask8_2014_3985" style="mask-type:luminance" maskUnits="userSpaceOnUse" x="60" y="0" width="3" height="2">
<path fill-rule="evenodd" clip-rule="evenodd" d="M61.5743 0.924913C61.6114 0.924913 61.6463 0.924916 61.6793 0.920199C61.7096 0.917719 61.7392 0.910359 61.7671 0.898392C61.7924 0.88732 61.8141 0.86933 61.8296 0.846502C61.8463 0.817707 61.8544 0.784838 61.8532 0.75161C61.8548 0.722641 61.8477 0.69385 61.8326 0.66906C61.82 0.649008 61.8017 0.633175 61.78 0.623647C61.7565 0.612208 61.7312 0.60484 61.7052 0.60184C61.6776 0.598768 61.6498 0.597378 61.6221 0.597702L61.4045 0.60184V0.927864L61.5743 0.924913ZM61.6504 0.467401C61.7479 0.458036 61.8458 0.481961 61.9281 0.535232C61.9593 0.562044 61.9837 0.59593 61.9992 0.634083C62.0147 0.672235 62.0208 0.713517 62.0171 0.754525C62.0198 0.792578 62.0138 0.830764 61.9998 0.866258C61.9859 0.901751 61.9642 0.933671 61.9363 0.959711C61.8795 1.00527 61.8107 1.03314 61.7382 1.03989L62.0365 1.48739L61.8596 1.49092L61.5755 1.05464L61.3986 1.05817V1.49977H61.2347L61.2412 0.473302L61.6504 0.467401ZM60.8998 1.29282C60.9352 1.38118 60.9881 1.46144 61.0554 1.52867C61.1228 1.59561 61.203 1.64814 61.2913 1.68312C61.385 1.72019 61.4853 1.73784 61.5861 1.73501C61.6875 1.73389 61.7877 1.71263 61.8809 1.6725C61.9692 1.63357 62.0492 1.57815 62.1167 1.5092C62.1843 1.43945 62.238 1.35741 62.2748 1.26749C62.3138 1.17184 62.3338 1.06949 62.3337 0.966188C62.3348 0.865234 62.316 0.765053 62.2783 0.671399C62.2433 0.583272 62.191 0.503095 62.1244 0.43559C62.0566 0.369592 61.9764 0.31751 61.8886 0.282294C61.7961 0.245257 61.6969 0.227771 61.5973 0.230979C61.4957 0.231891 61.3954 0.253579 61.3025 0.294673C61.2145 0.333255 61.1345 0.388049 61.0667 0.456209C60.9988 0.524935 60.9449 0.606244 60.9081 0.695581C60.8695 0.789091 60.8495 0.889214 60.8491 0.99037C60.846 1.09335 60.8633 1.19651 60.8998 1.29282ZM60.7554 0.650168C60.8038 0.544887 60.8714 0.44953 60.9547 0.368946C61.0394 0.288421 61.138 0.224103 61.2459 0.179125C61.3579 0.131792 61.4781 0.106544 61.5997 0.104816C61.7189 0.101652 61.8377 0.121697 61.9493 0.163795C62.055 0.204082 62.152 0.2641 62.2353 0.340661C62.3171 0.418244 62.3828 0.5112 62.4286 0.614219C62.4764 0.72263 62.5001 0.840078 62.4982 0.958523C62.4985 1.08035 62.4732 1.2009 62.4239 1.31229C62.3763 1.41799 62.3095 1.51393 62.227 1.59528C62.1436 1.67647 62.0453 1.74073 61.9375 1.78452C61.8267 1.83093 61.708 1.85576 61.5879 1.85764C61.4687 1.8604 61.35 1.84036 61.2383 1.79866C61.1311 1.75958 61.0329 1.69945 60.9494 1.6218C60.8666 1.54396 60.8002 1.45036 60.7542 1.34648C60.7066 1.23594 60.6829 1.1166 60.6847 0.996272C60.6848 0.876778 60.7101 0.758645 60.7589 0.649592L60.7554 0.650168Z" fill="white"/>
</mask>
<g mask="url(#mask8_2014_3985)">
<mask id="mask9_2014_3985" style="mask-type:luminance" maskUnits="userSpaceOnUse" x="0" y="-1" width="63" height="19">
<path d="M0 17.0995H62.5V-0.0224609H0V17.0995Z" fill="white"/>
</mask>
<g mask="url(#mask9_2014_3985)">
<path d="M60.5264 -0.046875H62.6488V2.01312H60.5264V-0.046875Z" fill="#7B8AA7"/>
</g>
</g>
</svg>
