<svg preserveAspectRatio="none" width="100%" height="100%" overflow="visible" style="display: block;" viewBox="0 0 14 14" fill="none" xmlns="http://www.w3.org/2000/svg">
<g id="g529">
<g id="g535">
<path id="path537" d="M12.8706 9.20891C11.9446 11.6027 9.6207 13.3001 6.90003 13.3001C5.48644 13.3001 4.17988 12.8418 3.12082 12.0655C2.46382 11.584 2.24203 11.311 1.96059 10.9698C1.52852 10.4462 1.17824 9.85289 0.929412 9.20891C0.651901 8.49269 0.5 7.71406 0.5 6.90012C0.5 6.05138 0.665179 5.24116 0.965263 4.49997C1.91464 2.15454 4.21414 0.500092 6.90003 0.500092C8.31361 0.500092 9.62017 0.95845 10.6792 1.73469C10.8 1.82324 11.5557 2.48662 11.8395 2.83039C12.2511 3.32912 12.5883 3.89131 12.8348 4.49997C13.1349 5.24116 13.3001 6.05138 13.3001 6.90012C13.3001 7.71406 13.1482 8.49269 12.8706 9.20891Z" stroke="var(--stroke-0, #7955F4)" stroke-miterlimit="10" stroke-linejoin="round"/>
</g>
<path id="path541" d="M9.43401 6.90003C9.43401 6.05129 9.36868 5.24106 9.24971 4.49988C8.87394 2.15445 7.9636 0.5 6.90003 0.5C5.96498 0.5 5.14838 1.77894 4.70915 3.68195C4.56468 4.30786 4.51623 4.59667 4.44279 5.33109C4.3926 5.833 4.36604 6.35881 4.36604 6.90003C4.36604 7.71397 4.42632 8.4926 4.536 9.20881C4.90274 11.6026 5.82291 13.3001 6.90003 13.3001C7.84914 13.3001 8.67663 11.9821 9.11056 10.031C9.30012 9.40005 9.30012 8.90005 9.36603 8.37894C9.41038 7.90438 9.43401 7.40911 9.43401 6.90003Z" stroke="var(--stroke-0, #7955F4)" stroke-miterlimit="10" stroke-linejoin="round"/>
<g id="g547">
<path id="path549" d="M12.9561 9.20884H12.8706H8.29995" stroke="var(--stroke-0, #7955F4)" stroke-miterlimit="10" stroke-linejoin="round"/>
</g>
<g id="g551">
<path id="path553" d="M8.42777 9.20884H4.53597H0.929383H0.843872" stroke="var(--stroke-0, #7955F4)" stroke-miterlimit="10" stroke-linejoin="round"/>
</g>
<g id="g555">
<path id="path557" d="M12.9562 4.49992H12.8348H9.24975H5.37229" stroke="var(--stroke-0, #7955F4)" stroke-miterlimit="10" stroke-linejoin="round"/>
</g>
<g id="g559">
<path id="path561" d="M5.79993 4.49992H0.965234H0.843872" stroke="var(--stroke-0, #7955F4)" stroke-miterlimit="10" stroke-linejoin="round"/>
</g>
</g>
</svg>
