<svg preserveAspectRatio="none" width="100%" height="100%" overflow="visible" style="display: block;" viewBox="0 0 172 29" fill="none" xmlns="http://www.w3.org/2000/svg">
<g id="Given on Goody">
<g id="Footer Text">
<path id="Vector" d="M68.8125 14.103H70.3937V15.3038C71.0942 14.4432 72.175 13.8828 73.3958 13.8828C75.5774 13.8828 77.2987 15.6841 77.2987 17.8257V24.1103H75.6975V17.8457C75.6975 16.4047 74.5767 15.2638 73.0756 15.2638C71.5345 15.2638 70.4137 16.4047 70.4137 17.8457V24.1103H68.8125V14.103Z" fill="var(--fill-0, #A372DF)"/>
<path id="Vector_2" d="M61.4298 24.431C58.4477 24.431 56.0859 22.0693 56.0859 19.1071C56.0859 16.1449 58.4477 13.7832 61.4298 13.7832C64.412 13.7832 66.7537 16.1449 66.7537 19.1071C66.7537 22.0693 64.412 24.431 61.4298 24.431ZM61.4298 22.9699C63.5114 22.9699 65.1325 21.2687 65.1325 19.1071C65.1325 16.9255 63.5114 15.2643 61.4298 15.2643C59.3283 15.2643 57.7071 16.9255 57.7071 19.1071C57.7071 21.2687 59.3283 22.9699 61.4298 22.9699Z" fill="var(--fill-0, #A372DF)"/>
<path id="Vector_3" d="M41.5312 14.103H43.1124V15.3038C43.8129 14.4432 44.8937 13.8828 46.1146 13.8828C48.2962 13.8828 50.0174 15.6841 50.0174 17.8257V24.1103H48.4163V17.8457C48.4163 16.4047 47.2955 15.2638 45.7944 15.2638C44.2532 15.2638 43.1324 16.4047 43.1324 17.8457V24.1103H41.5312V14.103Z" fill="var(--fill-0, #A372DF)"/>
<path id="Vector_4" d="M35.3243 24.4312C32.2421 24.4312 29.8203 22.1895 29.8203 19.0873C29.8203 16.1251 32.0419 13.7834 34.844 13.7834C37.606 13.7834 39.7275 16.005 39.7275 18.8871C39.7275 19.1673 39.7075 19.4475 39.6875 19.5876H31.4615C31.6617 21.6291 33.2628 22.9701 35.3443 22.9701C36.4451 22.9701 37.4259 22.6299 38.2465 22.0494L38.947 23.3504C38.0263 24.0109 36.7254 24.4312 35.3243 24.4312ZM34.844 15.2245C33.1427 15.2245 31.8418 16.4253 31.5216 18.1866H38.0863C37.8462 16.4253 36.5452 15.2245 34.844 15.2245Z" fill="var(--fill-0, #A372DF)"/>
<path id="Vector_5" d="M19.0195 14.1055H20.7608L24.2233 22.1313L27.7059 14.1055H29.4071L24.9238 24.1128H23.4828L19.0195 14.1055Z" fill="var(--fill-0, #A372DF)"/>
<path id="Vector_6" d="M15.8047 11.0818C15.8047 10.4613 16.265 9.96094 16.9455 9.96094C17.586 9.96094 18.0663 10.4613 18.0663 11.0818C18.0663 11.7422 17.586 12.2226 16.9455 12.2226C16.265 12.2226 15.8047 11.7422 15.8047 11.0818ZM17.7261 24.1113H16.1249V14.104H17.7261V24.1113Z" fill="var(--fill-0, #A372DF)"/>
<path id="Vector_7" d="M7.22527 24.4116C3.20234 24.4116 0 21.1893 0 17.1063C0 13.0233 3.18232 9.80098 7.08517 9.80098C9.24675 9.80098 11.1682 10.7617 12.4891 12.2828L11.2682 13.4236C10.2675 12.1827 8.78641 11.3621 7.08517 11.3621C4.06296 11.3621 1.70124 13.924 1.70124 17.1063C1.70124 20.2886 4.06296 22.8505 7.22527 22.8505C9.90723 22.8505 11.8486 21.0692 12.289 18.5073H7.1252V16.9862H14.0102V17.4065C14.0102 21.4495 11.1081 24.4116 7.22527 24.4116Z" fill="var(--fill-0, #A372DF)"/>
</g>
<g id="Icon Container">
<g id="Vector_8">
<path d="M98.2928 0.718877C98.2928 0.321852 97.9726 0 97.5777 0C97.1828 0 96.8626 0.321852 96.8626 0.718877V5.03214C96.8626 5.42916 97.1828 5.75102 97.5777 5.75102C97.9726 5.75102 98.2928 5.42916 98.2928 5.03214V0.718877Z" fill="url(#paint0_linear_2042_2071)"/>
<path d="M87.14 12.9038C87.3375 12.56 87.2203 12.1203 86.8783 11.9218L83.1626 9.7652C82.8206 9.56668 82.3832 9.68449 82.1858 10.0283C81.9883 10.3722 82.1055 10.8118 82.4475 11.0103L86.1632 13.167C86.5052 13.3655 86.9426 13.2477 87.14 12.9038Z" fill="url(#paint1_linear_2042_2071)"/>
<path d="M107.068 3.32711C107.266 2.98328 107.149 2.54362 106.806 2.34511C106.464 2.14659 106.027 2.2644 105.83 2.60823L103.684 6.34363C103.487 6.68746 103.604 7.12712 103.946 7.32563C104.288 7.52414 104.726 7.40634 104.923 7.06251L107.068 3.32711Z" fill="url(#paint2_linear_2042_2071)"/>
<path d="M91.2092 7.32563C91.5512 7.12712 91.6684 6.68746 91.471 6.34363L89.3257 2.60823C89.1282 2.2644 88.6909 2.14659 88.3489 2.3451C88.0069 2.54362 87.8897 2.98328 88.0871 3.32711L90.2324 7.0625C90.4299 7.40634 90.8672 7.52414 91.2092 7.32563Z" fill="url(#paint3_linear_2042_2071)"/>
<path d="M112.708 11.0103C113.05 10.8118 113.167 10.3722 112.97 10.0283C112.772 9.68449 112.335 9.56668 111.993 9.7652L108.277 11.9218C107.935 12.1203 107.818 12.56 108.015 12.9038C108.213 13.2477 108.65 13.3655 108.992 13.167L112.708 11.0103Z" fill="url(#paint4_linear_2042_2071)"/>
</g>
<path id="Vector_9" d="M104.215 21.3682V27.263C104.215 27.7051 103.92 27.9999 103.478 27.9999H91.6774C91.2349 27.9999 90.9399 27.7051 90.9399 27.263V21.3682H96.84V27.9999H98.315V21.3682H104.215ZM96.84 16.2102H90.2024C89.7599 16.2102 89.4648 16.5049 89.4648 16.947V19.1576C89.4648 19.5997 89.7599 19.8945 90.2024 19.8945H96.84V16.2102ZM104.953 16.2102H98.315V19.8945H104.953C105.395 19.8945 105.69 19.5997 105.69 19.1576V16.947C105.69 16.5049 105.395 16.2102 104.953 16.2102ZM102.814 15.3997L102.888 15.1049C103.183 14.3681 103.109 13.4838 102.666 12.8207C102.224 12.1575 101.413 11.7891 100.601 11.7891C99.5688 11.7891 98.6838 12.3785 98.315 13.3365L96.84 16.947H100.528C101.486 16.947 102.445 16.3576 102.814 15.3997ZM99.7163 13.8523C99.8638 13.4838 100.233 13.2628 100.601 13.2628C100.896 13.2628 101.191 13.4101 101.413 13.7049C101.56 13.9996 101.634 14.2944 101.486 14.5891L101.413 14.8839C101.265 15.2523 100.896 15.4733 100.528 15.4733H99.0526L99.7163 13.8523ZM96.84 13.3365C96.4713 12.3785 95.5125 11.7891 94.5537 11.7891C93.7424 11.7891 92.9312 12.1575 92.4887 12.8943C92.0462 13.5575 91.9724 14.3681 92.2674 15.1786L92.3412 15.4733C92.7099 16.3576 93.6687 16.947 94.6275 16.947H98.2413L96.84 13.3365ZM95.4387 13.8523L96.1025 15.4733H94.6275C94.2587 15.4733 93.8899 15.2523 93.7424 14.8839L93.5949 14.5891C93.5212 14.2944 93.5212 13.9259 93.7424 13.7049C93.8899 13.4101 94.1849 13.2628 94.5537 13.2628C94.9225 13.2628 95.2912 13.4838 95.4387 13.8523Z" fill="url(#paint5_linear_2042_2071)"/>
</g>
<path id="goody" d="M121.316 13.7578C122.984 13.7578 124.329 14.5497 125.159 15.7949V13.9941H126.544V23.5078C126.544 25.0212 125.948 26.1798 125.036 26.959C124.125 27.7372 122.9 28.1348 121.645 28.1348C119.411 28.1348 117.786 27.2604 117.021 25.6992L116.998 25.6533L117.043 25.627L118.162 24.9766L118.215 24.9463L118.24 25.001C118.478 25.4961 118.815 25.9342 119.346 26.25C119.877 26.5661 120.609 26.7627 121.645 26.7627C122.753 26.7627 123.63 26.4403 124.23 25.876C124.83 25.3119 125.159 24.5 125.159 23.5078V22.1562C124.329 23.4017 122.985 24.1934 121.316 24.1934C118.564 24.1933 116.282 21.9211 116.282 18.9756C116.282 16.0302 118.564 13.7578 121.316 13.7578ZM163.543 13.9941L163.558 14.0273L167.13 22.1592L170.208 14.0303L170.222 13.9941H171.691L171.663 14.0703L167.533 24.8281C166.795 26.7314 165.35 28.0381 163.579 27.8975L163.528 27.8936V26.5586L163.59 26.5654C164.806 26.699 165.658 25.8238 166.176 24.5508L166.417 23.9619L162.104 14.0723L162.07 13.9941H163.543ZM133.295 13.7578C136.143 13.7579 138.426 16.0295 138.426 18.9756C138.426 21.9218 136.143 24.1933 133.295 24.1934C130.446 24.1934 128.164 21.9219 128.164 18.9756C128.164 16.0295 130.446 13.7578 133.295 13.7578ZM144.611 13.7578C147.46 13.7579 149.742 16.0295 149.742 18.9756C149.742 21.9218 147.46 24.1933 144.611 24.1934C141.763 24.1934 139.48 21.9219 139.48 18.9756C139.481 16.0295 141.763 13.7578 144.611 13.7578ZM161.059 10.0537V23.957H159.674V22.1562C158.843 23.4017 157.499 24.1934 155.831 24.1934C153.078 24.1933 150.797 21.9211 150.797 18.9756C150.797 16.0302 153.078 13.7579 155.831 13.7578C157.499 13.7578 158.843 14.5498 159.674 15.7949V10.0537H161.059ZM121.413 15.1299C119.303 15.1299 117.667 16.8179 117.667 18.9756C117.667 21.1334 119.303 22.8213 121.413 22.8213C123.523 22.8212 125.159 21.1334 125.159 18.9756C125.159 16.818 123.523 15.13 121.413 15.1299ZM133.295 15.1299C131.185 15.1299 129.549 16.8179 129.549 18.9756C129.549 21.1334 131.185 22.8213 133.295 22.8213C135.405 22.8212 137.041 21.1334 137.041 18.9756C137.041 16.818 135.405 15.13 133.295 15.1299ZM144.611 15.1299C142.502 15.1299 140.865 16.8179 140.865 18.9756C140.865 21.1334 142.502 22.8213 144.611 22.8213C146.721 22.8212 148.357 21.1334 148.357 18.9756C148.357 16.8179 146.721 15.1299 144.611 15.1299ZM155.928 15.1299C153.818 15.1299 152.182 16.8179 152.182 18.9756C152.182 21.1334 153.818 22.8213 155.928 22.8213C158.037 22.8213 159.674 21.1334 159.674 18.9756C159.674 16.8179 158.037 15.1299 155.928 15.1299Z" fill="var(--fill-0, #A372DF)" stroke="var(--stroke-0, #A372DF)" stroke-width="0.111192"/>
</g>
<defs>
<linearGradient id="paint0_linear_2042_2071" x1="117.395" y1="11.502" x2="77.7807" y2="11.4821" gradientUnits="userSpaceOnUse">
<stop stop-color="#E782FC"/>
<stop offset="1" stop-color="#80D7FF"/>
</linearGradient>
<linearGradient id="paint1_linear_2042_2071" x1="117.395" y1="11.502" x2="77.7807" y2="11.4821" gradientUnits="userSpaceOnUse">
<stop stop-color="#E782FC"/>
<stop offset="1" stop-color="#80D7FF"/>
</linearGradient>
<linearGradient id="paint2_linear_2042_2071" x1="117.395" y1="11.502" x2="77.7807" y2="11.4821" gradientUnits="userSpaceOnUse">
<stop stop-color="#E782FC"/>
<stop offset="1" stop-color="#80D7FF"/>
</linearGradient>
<linearGradient id="paint3_linear_2042_2071" x1="117.395" y1="11.502" x2="77.7807" y2="11.4821" gradientUnits="userSpaceOnUse">
<stop stop-color="#E782FC"/>
<stop offset="1" stop-color="#80D7FF"/>
</linearGradient>
<linearGradient id="paint4_linear_2042_2071" x1="117.395" y1="11.502" x2="77.7807" y2="11.4821" gradientUnits="userSpaceOnUse">
<stop stop-color="#E782FC"/>
<stop offset="1" stop-color="#80D7FF"/>
</linearGradient>
<linearGradient id="paint5_linear_2042_2071" x1="97.5775" y1="11.5364" x2="97.5775" y2="29.221" gradientUnits="userSpaceOnUse">
<stop stop-color="#80D7FF"/>
<stop offset="1" stop-color="#E980FC"/>
</linearGradient>
</defs>
</svg>
