<svg preserveAspectRatio="none" width="100%" height="100%" overflow="visible" style="display: block;" viewBox="0 0 14 14" fill="none" xmlns="http://www.w3.org/2000/svg">
<g id="Group">
<path id="Vector" d="M2.2339 2.23333C2.21556 1.79304 2.37244 1.36342 2.67019 1.03855C2.96793 0.713674 3.38228 0.520024 3.8225 0.5C6.1729 0.5 7.00057 3.96667 7.00057 3.96667H3.8225C3.3822 3.94687 2.96772 3.75329 2.66992 3.42836C2.37213 3.10344 2.21533 2.67369 2.2339 2.23333Z" stroke="var(--stroke-0, #7955F4)" stroke-miterlimit="10" stroke-linejoin="round"/>
<path id="Vector_2" d="M11.7667 2.23333C11.785 1.79304 11.6281 1.36342 11.3304 1.03855C11.0326 0.713674 10.6183 0.520024 10.1781 0.5C7.82767 0.5 7 3.96667 7 3.96667H10.1781C10.6184 3.94687 11.0329 3.75329 11.3306 3.42836C11.6284 3.10344 11.7852 2.67369 11.7667 2.23333Z" stroke="var(--stroke-0, #7955F4)" stroke-miterlimit="10" stroke-linejoin="round"/>
<path id="Vector_3" d="M11.7658 8.30078V12.2008C11.7658 12.5456 11.6288 12.8762 11.385 13.12C11.1412 13.3638 10.8105 13.5008 10.4658 13.5008H3.53242C3.18764 13.5008 2.85698 13.3638 2.61318 13.12C2.36939 12.8762 2.23242 12.5456 2.23242 12.2008V8.30078" stroke="var(--stroke-0, #7955F4)" stroke-miterlimit="10" stroke-linejoin="round"/>
<path id="Vector_4" d="M13.5 3.96667H0.5V6.56667H13.5V3.96667Z" stroke="var(--stroke-0, #7955F4)" stroke-miterlimit="10" stroke-linejoin="round"/>
</g>
</svg>
