<svg preserveAspectRatio="none" width="100%" height="100%" overflow="visible" style="display: block;" viewBox="0 0 87 29" fill="none" xmlns="http://www.w3.org/2000/svg">
<g id="goody">
<path d="M13.9488 6.19252V9.22685C12.6752 7.15235 10.5222 5.82096 7.82345 5.82096C3.54784 5.82096 0 9.3507 0 13.9332C0 18.5156 3.54784 22.0454 7.82345 22.0454C10.5222 22.0454 12.6752 20.714 13.9488 18.6395V21.0546C13.9488 24.2127 11.8565 26.2563 8.33895 26.2563C5.06401 26.2563 3.66914 25.0178 2.91105 23.4387L1.15229 24.4604C2.3349 26.8755 4.85175 28.2379 8.33895 28.2379C12.2507 28.2379 15.9501 25.7609 15.9501 21.0546V6.19252H13.9488ZM7.97506 20.0637C4.60916 20.0637 2.00135 17.37 2.00135 13.9332C2.00135 10.4963 4.60916 7.80257 7.97506 7.80257C11.341 7.80257 13.9488 10.4963 13.9488 13.9332C13.9488 17.37 11.341 20.0637 7.97506 20.0637Z" fill="var(--fill-0, #A372DF)"/>
<path d="M26.6465 22.0454C31.0737 22.0454 34.6215 18.5156 34.6215 13.9332C34.6215 9.3507 31.0737 5.82096 26.6465 5.82096C22.2193 5.82096 18.6714 9.3507 18.6714 13.9332C18.6714 18.5156 22.2193 22.0454 26.6465 22.0454ZM26.6465 20.0637C23.2806 20.0637 20.6728 17.37 20.6728 13.9332C20.6728 10.4963 23.2806 7.80257 26.6465 7.80257C30.0124 7.80257 32.6202 10.4963 32.6202 13.9332C32.6202 17.37 30.0124 20.0637 26.6465 20.0637Z" fill="var(--fill-0, #A372DF)"/>
<path d="M44.4295 22.0454C48.8567 22.0454 52.4046 18.5156 52.4046 13.9332C52.4046 9.3507 48.8567 5.82096 44.4295 5.82096C40.0023 5.82096 36.4545 9.3507 36.4545 13.9332C36.4545 18.5156 40.0023 22.0454 44.4295 22.0454ZM44.4295 20.0637C41.0636 20.0637 38.4558 17.37 38.4558 13.9332C38.4558 10.4963 41.0636 7.80257 44.4295 7.80257C47.7954 7.80257 50.4032 10.4963 50.4032 13.9332C50.4032 17.37 47.7954 20.0637 44.4295 20.0637Z" fill="var(--fill-0, #A372DF)"/>
<path d="M68.1863 0V9.22685C66.9127 7.15235 64.7597 5.82096 62.0609 5.82096C57.7853 5.82096 54.2375 9.3507 54.2375 13.9332C54.2375 18.5156 57.7853 22.0454 62.0609 22.0454C64.7597 22.0454 66.9127 20.714 68.1863 18.6395V21.6738H70.1876V0H68.1863ZM62.2126 20.0637C58.8467 20.0637 56.2388 17.37 56.2388 13.9332C56.2388 10.4963 58.8467 7.80257 62.2126 7.80257C65.5785 7.80257 68.1863 10.4963 68.1863 13.9332C68.1863 17.37 65.5785 20.0637 62.2126 20.0637Z" fill="var(--fill-0, #A372DF)"/>
<path d="M84.735 6.19252L79.8227 19.1658L74.1218 6.19252H71.9992L78.7917 21.7667L78.3974 22.7265C77.5787 24.7391 76.2142 26.1634 74.2431 25.9466V27.8663C76.9722 28.0831 79.2162 26.0705 80.3685 23.0981L86.8577 6.19252H84.735Z" fill="var(--fill-0, #A372DF)"/>
</g>
</svg>
