<svg preserveAspectRatio="none" width="100%" height="100%" overflow="visible" style="display: block;" viewBox="0 0 35 32" fill="none" xmlns="http://www.w3.org/2000/svg">
<g id="Icon Container">
<g id="Vector">
<path d="M18.215 0.808147C18.215 0.36182 17.8551 0 17.4111 0C16.9671 0 16.6072 0.361819 16.6072 0.808146V5.65703C16.6072 6.10335 16.9671 6.46517 17.4111 6.46517C17.8551 6.46517 18.215 6.10335 18.215 5.65703V0.808147Z" fill="url(#paint0_linear_1952_19187)"/>
<path d="M5.6773 14.5062C5.89929 14.1197 5.76755 13.6254 5.38306 13.4023L1.20596 10.9778C0.821468 10.7547 0.32982 10.8871 0.107834 11.2736C-0.114152 11.6602 0.0175841 12.1544 0.402076 12.3776L4.57918 14.802C4.96367 15.0252 5.45532 14.8927 5.6773 14.5062Z" fill="url(#paint1_linear_1952_19187)"/>
<path d="M28.0802 3.74027C28.3022 3.35374 28.1704 2.85948 27.7859 2.63632C27.4015 2.41316 26.9098 2.54559 26.6878 2.93212L24.2762 7.13137C24.0542 7.5179 24.1859 8.01216 24.5704 8.23532C24.9549 8.45848 25.4466 8.32605 25.6685 7.93952L28.0802 3.74027Z" fill="url(#paint2_linear_1952_19187)"/>
<path d="M10.2518 8.23532C10.6363 8.01216 10.768 7.5179 10.546 7.13137L8.13439 2.93212C7.91241 2.54559 7.42076 2.41315 7.03627 2.63632C6.65178 2.85948 6.52004 3.35374 6.74203 3.74027L9.15368 7.93952C9.37566 8.32605 9.86731 8.45848 10.2518 8.23532Z" fill="url(#paint3_linear_1952_19187)"/>
<path d="M34.4201 12.3776C34.8046 12.1544 34.9364 11.6602 34.7144 11.2736C34.4924 10.8871 34.0008 10.7547 33.6163 10.9778L29.4392 13.4023C29.0547 13.6254 28.9229 14.1197 29.1449 14.5062C29.3669 14.8927 29.8585 15.0252 30.243 14.802L34.4201 12.3776Z" fill="url(#paint4_linear_1952_19187)"/>
</g>
<path id="Vector_2" d="M24.8737 24.0218V30.6487C24.8737 31.1457 24.542 31.477 24.0446 31.477H10.779C10.2815 31.477 9.94988 31.1457 9.94988 30.6487V24.0218H16.5827V31.477H18.2409V24.0218H24.8737ZM16.5827 18.2233H9.12078C8.62332 18.2233 8.29168 18.5546 8.29168 19.0517V21.5367C8.29168 22.0337 8.62332 22.3651 9.12078 22.3651H16.5827V18.2233ZM25.7028 18.2233H18.2409V22.3651H25.7028C26.2002 22.3651 26.5319 22.0337 26.5319 21.5367V19.0517C26.5319 18.5546 26.2002 18.2233 25.7028 18.2233ZM23.2984 17.3121L23.3813 16.9808C23.7129 16.1524 23.63 15.1584 23.1326 14.4129C22.6351 13.6673 21.7231 13.2532 20.8111 13.2532C19.6504 13.2532 18.6554 13.9158 18.2409 14.9927L16.5827 19.0517H20.7282C21.806 19.0517 22.8838 18.389 23.2984 17.3121ZM19.8162 15.5726C19.982 15.1584 20.3965 14.9099 20.8111 14.9099C21.1427 14.9099 21.4744 15.0755 21.7231 15.4069C21.8889 15.7382 21.9718 16.0696 21.806 16.4009L21.7231 16.7323C21.5573 17.1464 21.1427 17.3949 20.7282 17.3949H19.07L19.8162 15.5726ZM16.5827 14.9927C16.1681 13.9158 15.0903 13.2532 14.0125 13.2532C13.1005 13.2532 12.1885 13.6673 11.691 14.4957C11.1935 15.2412 11.1106 16.1524 11.4423 17.0636L11.5252 17.3949C11.9397 18.389 13.0176 19.0517 14.0954 19.0517H18.158L16.5827 14.9927ZM15.0074 15.5726L15.7536 17.3949H14.0954C13.6808 17.3949 13.2663 17.1464 13.1005 16.7323L12.9346 16.4009C12.8517 16.0696 12.8517 15.6554 13.1005 15.4069C13.2663 15.0755 13.5979 14.9099 14.0125 14.9099C14.427 14.9099 14.8416 15.1584 15.0074 15.5726Z" fill="url(#paint5_linear_1952_19187)"/>
</g>
<defs>
<linearGradient id="paint0_linear_1952_19187" x1="39.689" y1="12.9303" x2="-4.84423" y2="12.9079" gradientUnits="userSpaceOnUse">
<stop stop-color="#E782FC"/>
<stop offset="1" stop-color="#80D7FF"/>
</linearGradient>
<linearGradient id="paint1_linear_1952_19187" x1="39.689" y1="12.9303" x2="-4.84423" y2="12.9079" gradientUnits="userSpaceOnUse">
<stop stop-color="#E782FC"/>
<stop offset="1" stop-color="#80D7FF"/>
</linearGradient>
<linearGradient id="paint2_linear_1952_19187" x1="39.689" y1="12.9303" x2="-4.84423" y2="12.9079" gradientUnits="userSpaceOnUse">
<stop stop-color="#E782FC"/>
<stop offset="1" stop-color="#80D7FF"/>
</linearGradient>
<linearGradient id="paint3_linear_1952_19187" x1="39.689" y1="12.9303" x2="-4.84423" y2="12.9079" gradientUnits="userSpaceOnUse">
<stop stop-color="#E782FC"/>
<stop offset="1" stop-color="#80D7FF"/>
</linearGradient>
<linearGradient id="paint4_linear_1952_19187" x1="39.689" y1="12.9303" x2="-4.84423" y2="12.9079" gradientUnits="userSpaceOnUse">
<stop stop-color="#E782FC"/>
<stop offset="1" stop-color="#80D7FF"/>
</linearGradient>
<linearGradient id="paint5_linear_1952_19187" x1="17.4118" y1="12.9692" x2="17.4118" y2="32.8497" gradientUnits="userSpaceOnUse">
<stop stop-color="#80D7FF"/>
<stop offset="1" stop-color="#E980FC"/>
</linearGradient>
</defs>
</svg>
