<svg preserveAspectRatio="none" width="100%" height="100%" overflow="visible" style="display: block;" viewBox="0 0 49 44" fill="none" xmlns="http://www.w3.org/2000/svg">
<g id="Group 4">
<g id="Vector">
<path d="M25.4618 1.12966C25.4618 0.505768 24.9586 0 24.338 0C23.7174 0 23.2143 0.505767 23.2143 1.12966V7.90765C23.2143 8.53154 23.7174 9.03731 24.338 9.03731C24.9586 9.03731 25.4618 8.53154 25.4618 7.90765V1.12966Z" fill="url(#paint0_linear_1952_19174)"/>
<path d="M7.93599 20.2774C8.24629 19.7371 8.06215 19.0462 7.52469 18.7343L1.68575 15.3453C1.14829 15.0334 0.461037 15.2185 0.150736 15.7588C-0.159567 16.2991 0.0245799 16.99 0.56204 17.3019L6.40098 20.6909C6.93844 21.0029 7.62569 20.8178 7.93599 20.2774Z" fill="url(#paint1_linear_1952_19174)"/>
<path d="M39.2518 5.22832C39.5621 4.68801 39.3779 3.99711 38.8405 3.68516C38.303 3.37322 37.6158 3.55834 37.3055 4.09865L33.9343 9.96856C33.624 10.5089 33.8082 11.1998 34.3456 11.5117C34.8831 11.8237 35.5704 11.6385 35.8807 11.0982L39.2518 5.22832Z" fill="url(#paint2_linear_1952_19174)"/>
<path d="M14.3304 11.5117C14.8679 11.1998 15.052 10.5089 14.7417 9.96856L11.3706 4.09865C11.0603 3.55834 10.3731 3.37322 9.83562 3.68516C9.29816 3.99711 9.11401 4.688 9.42431 5.22831L12.7954 11.0982C13.1057 11.6385 13.793 11.8237 14.3304 11.5117Z" fill="url(#paint3_linear_1952_19174)"/>
<path d="M48.114 17.3019C48.6515 16.99 48.8357 16.2991 48.5253 15.7588C48.215 15.2185 47.5278 15.0334 46.9903 15.3453L41.1514 18.7343C40.6139 19.0462 40.4298 19.7371 40.7401 20.2774C41.0504 20.8178 41.7376 21.0029 42.2751 20.6909L48.114 17.3019Z" fill="url(#paint4_linear_1952_19174)"/>
</g>
<path id="Vector_2" d="M34.7696 33.5788V42.8421C34.7696 43.5368 34.306 44 33.6106 44H15.0673C14.372 44 13.9084 43.5368 13.9084 42.8421V33.5788H23.18V44H25.4979V33.5788H34.7696ZM23.18 25.4734H12.7494C12.0541 25.4734 11.5905 25.9365 11.5905 26.6313V30.105C11.5905 30.7998 12.0541 31.2629 12.7494 31.2629H23.18V25.4734ZM35.9285 25.4734H25.4979V31.2629H35.9285C36.6239 31.2629 37.0875 30.7998 37.0875 30.105V26.6313C37.0875 25.9365 36.6239 25.4734 35.9285 25.4734ZM32.5676 24.1997L32.6835 23.7365C33.147 22.5786 33.0311 21.1891 32.3358 20.1469C31.6404 19.1048 30.3655 18.5259 29.0907 18.5259C27.4682 18.5259 26.0774 19.4522 25.4979 20.9575L23.18 26.6313H28.9748C30.4814 26.6313 31.9881 25.7049 32.5676 24.1997ZM27.6999 21.768C27.9317 21.1891 28.5112 20.8417 29.0907 20.8417C29.5543 20.8417 30.0179 21.0733 30.3655 21.5364C30.5973 21.9996 30.7132 22.4628 30.4814 22.9259L30.3655 23.3891C30.1338 23.9681 29.5543 24.3154 28.9748 24.3154H26.6569L27.6999 21.768ZM23.18 20.9575C22.6005 19.4522 21.0939 18.5259 19.5873 18.5259C18.3124 18.5259 17.0376 19.1048 16.3422 20.2627C15.6468 21.3049 15.5309 22.5786 15.9945 23.8523L16.1104 24.3154C16.6899 25.7049 18.1965 26.6313 19.7032 26.6313H25.382L23.18 20.9575ZM20.978 21.768L22.0211 24.3154H19.7032C19.1237 24.3154 18.5442 23.9681 18.3124 23.3891L18.0806 22.9259C17.9647 22.4628 17.9647 21.8838 18.3124 21.5364C18.5442 21.0733 19.0078 20.8417 19.5873 20.8417C20.1667 20.8417 20.7462 21.1891 20.978 21.768Z" fill="url(#paint5_linear_1952_19174)"/>
</g>
<defs>
<linearGradient id="paint0_linear_1952_19174" x1="55.4791" y1="18.0746" x2="-6.77149" y2="18.0433" gradientUnits="userSpaceOnUse">
<stop stop-color="#E782FC"/>
<stop offset="1" stop-color="#80D7FF"/>
</linearGradient>
<linearGradient id="paint1_linear_1952_19174" x1="55.4791" y1="18.0746" x2="-6.77149" y2="18.0433" gradientUnits="userSpaceOnUse">
<stop stop-color="#E782FC"/>
<stop offset="1" stop-color="#80D7FF"/>
</linearGradient>
<linearGradient id="paint2_linear_1952_19174" x1="55.4791" y1="18.0746" x2="-6.77149" y2="18.0433" gradientUnits="userSpaceOnUse">
<stop stop-color="#E782FC"/>
<stop offset="1" stop-color="#80D7FF"/>
</linearGradient>
<linearGradient id="paint3_linear_1952_19174" x1="55.4791" y1="18.0746" x2="-6.77149" y2="18.0433" gradientUnits="userSpaceOnUse">
<stop stop-color="#E782FC"/>
<stop offset="1" stop-color="#80D7FF"/>
</linearGradient>
<linearGradient id="paint4_linear_1952_19174" x1="55.4791" y1="18.0746" x2="-6.77149" y2="18.0433" gradientUnits="userSpaceOnUse">
<stop stop-color="#E782FC"/>
<stop offset="1" stop-color="#80D7FF"/>
</linearGradient>
<linearGradient id="paint5_linear_1952_19174" x1="24.339" y1="18.1289" x2="24.339" y2="45.9188" gradientUnits="userSpaceOnUse">
<stop stop-color="#80D7FF"/>
<stop offset="1" stop-color="#E980FC"/>
</linearGradient>
</defs>
</svg>
