<svg preserveAspectRatio="none" width="100%" height="100%" overflow="visible" style="display: block;" viewBox="0 0 63 21" fill="none" xmlns="http://www.w3.org/2000/svg">
<g id="goody">
<path d="M9.97877 4.43004V6.60076C9.06767 5.1167 7.52746 4.16424 5.59679 4.16424C2.53808 4.16424 0 6.68936 0 9.9676C0 13.2458 2.53808 15.771 5.59679 15.771C7.52746 15.771 9.06767 14.8185 9.97877 13.3344V15.0621C9.97877 17.3215 8.48196 18.7834 5.96557 18.7834C3.62273 18.7834 2.62485 17.8974 2.08253 16.7677L0.824333 17.4987C1.67036 19.2264 3.47088 20.201 5.96557 20.201C8.76396 20.201 11.4105 18.429 11.4105 15.0621V4.43004H9.97877ZM5.70525 14.3533C3.29733 14.3533 1.43174 12.4263 1.43174 9.9676C1.43174 7.50892 3.29733 5.58185 5.70525 5.58185C8.11317 5.58185 9.97877 7.50892 9.97877 9.9676C9.97877 12.4263 8.11317 14.3533 5.70525 14.3533Z" fill="var(--fill-0, #A372DF)"/>
<path d="M19.0625 15.771C22.2297 15.771 24.7678 13.2458 24.7678 9.9676C24.7678 6.68936 22.2297 4.16424 19.0625 4.16424C15.8954 4.16424 13.3573 6.68936 13.3573 9.9676C13.3573 13.2458 15.8954 15.771 19.0625 15.771ZM19.0625 14.3533C16.6546 14.3533 14.789 12.4263 14.789 9.9676C14.789 7.50892 16.6546 5.58185 19.0625 5.58185C21.4705 5.58185 23.3361 7.50892 23.3361 9.9676C23.3361 12.4263 21.4705 14.3533 19.0625 14.3533Z" fill="var(--fill-0, #A372DF)"/>
<path d="M31.7843 15.771C34.9515 15.771 37.4895 13.2458 37.4895 9.9676C37.4895 6.68936 34.9515 4.16424 31.7843 4.16424C28.6171 4.16424 26.079 6.68936 26.079 9.9676C26.079 13.2458 28.6171 15.771 31.7843 15.771ZM31.7843 14.3533C29.3764 14.3533 27.5108 12.4263 27.5108 9.9676C27.5108 7.50892 29.3764 5.58185 31.7843 5.58185C34.1922 5.58185 36.0578 7.50892 36.0578 9.9676C36.0578 12.4263 34.1922 14.3533 31.7843 14.3533Z" fill="var(--fill-0, #A372DF)"/>
<path d="M48.7795 0V6.60076C47.8684 5.1167 46.3282 4.16424 44.3976 4.16424C41.3389 4.16424 38.8008 6.68936 38.8008 9.9676C38.8008 13.2458 41.3389 15.771 44.3976 15.771C46.3282 15.771 47.8684 14.8185 48.7795 13.3344V15.5051H50.2113V0H48.7795ZM44.506 14.3533C42.0981 14.3533 40.2325 12.4263 40.2325 9.9676C40.2325 7.50892 42.0981 5.58185 44.506 5.58185C46.9139 5.58185 48.7795 7.50892 48.7795 9.9676C48.7795 12.4263 46.9139 14.3533 44.506 14.3533Z" fill="var(--fill-0, #A372DF)"/>
<path d="M60.6183 4.43004L57.1041 13.711L53.0258 4.43004H51.5073L56.3665 15.5716L56.0845 16.2583C55.4988 17.698 54.5226 18.7169 53.1125 18.5619V19.9352C55.0649 20.0902 56.6702 18.6505 57.4945 16.5241L62.1368 4.43004H60.6183Z" fill="var(--fill-0, #A372DF)"/>
</g>
</svg>
