<svg width="151" height="44" viewBox="0 0 151 44" fill="none" xmlns="http://www.w3.org/2000/svg">
<path d="M25.4618 1.12966C25.4618 0.505768 24.9586 0 24.338 0C23.7174 0 23.2143 0.505767 23.2143 1.12966V7.90765C23.2143 8.53154 23.7174 9.03731 24.338 9.03731C24.9586 9.03731 25.4618 8.53154 25.4618 7.90765V1.12966Z" fill="url(#paint0_linear_1952_19163)"/>
<path d="M7.93599 20.2774C8.24629 19.7371 8.06215 19.0462 7.52469 18.7343L1.68575 15.3453C1.14829 15.0334 0.461037 15.2185 0.150736 15.7588C-0.159567 16.2991 0.0245799 16.99 0.56204 17.3019L6.40098 20.6909C6.93844 21.0029 7.62569 20.8178 7.93599 20.2774Z" fill="url(#paint1_linear_1952_19163)"/>
<path d="M39.2518 5.22832C39.5621 4.68801 39.3779 3.99711 38.8405 3.68516C38.303 3.37322 37.6158 3.55834 37.3055 4.09865L33.9343 9.96856C33.624 10.5089 33.8082 11.1998 34.3456 11.5117C34.8831 11.8237 35.5704 11.6385 35.8807 11.0982L39.2518 5.22832Z" fill="url(#paint2_linear_1952_19163)"/>
<path d="M14.3304 11.5117C14.8679 11.1998 15.052 10.5089 14.7417 9.96856L11.3706 4.09865C11.0603 3.55834 10.3731 3.37322 9.83562 3.68516C9.29816 3.99711 9.11401 4.688 9.42431 5.22831L12.7954 11.0982C13.1057 11.6385 13.793 11.8237 14.3304 11.5117Z" fill="url(#paint3_linear_1952_19163)"/>
<path d="M48.114 17.3019C48.6515 16.99 48.8357 16.2991 48.5253 15.7588C48.215 15.2185 47.5278 15.0334 46.9903 15.3453L41.1514 18.7343C40.6139 19.0462 40.4298 19.7371 40.7401 20.2774C41.0504 20.8178 41.7376 21.0029 42.2751 20.6909L48.114 17.3019Z" fill="url(#paint4_linear_1952_19163)"/>
<path d="M34.7699 33.5783V42.8416C34.7699 43.5364 34.3063 43.9995 33.611 43.9995H15.0677C14.3723 43.9995 13.9087 43.5364 13.9087 42.8416V33.5783H23.1804V43.9995H25.4983V33.5783H34.7699ZM23.1804 25.4729H12.7498C12.0544 25.4729 11.5908 25.936 11.5908 26.6308V30.1045C11.5908 30.7993 12.0544 31.2625 12.7498 31.2625H23.1804V25.4729ZM35.9289 25.4729H25.4983V31.2625H35.9289C36.6242 31.2625 37.0878 30.7993 37.0878 30.1045V26.6308C37.0878 25.936 36.6242 25.4729 35.9289 25.4729ZM32.5679 24.1992L32.6838 23.736C33.1474 22.5781 33.0315 21.1886 32.3361 20.1465C31.6407 19.1043 30.3659 18.5254 29.091 18.5254C27.4685 18.5254 26.0778 19.4517 25.4983 20.957L23.1804 26.6308H28.9751C30.4818 26.6308 31.9884 25.7045 32.5679 24.1992ZM27.7003 21.7676C27.9321 21.1886 28.5116 20.8412 29.091 20.8412C29.5546 20.8412 30.0182 21.0728 30.3659 21.536C30.5977 21.9991 30.7136 22.4623 30.4818 22.9255L30.3659 23.3886C30.1341 23.9676 29.5546 24.315 28.9751 24.315H26.6572L27.7003 21.7676ZM23.1804 20.957C22.6009 19.4517 21.0942 18.5254 19.5876 18.5254C18.3128 18.5254 17.0379 19.1043 16.3425 20.2623C15.6472 21.3044 15.5313 22.5781 15.9948 23.8518L16.1107 24.315C16.6902 25.7045 18.1969 26.6308 19.7035 26.6308H25.3824L23.1804 20.957ZM20.9784 21.7676L22.0214 24.315H19.7035C19.124 24.315 18.5445 23.9676 18.3128 23.3886L18.081 22.9255C17.9651 22.4623 17.9651 21.8833 18.3128 21.536C18.5445 21.0728 19.0081 20.8412 19.5876 20.8412C20.1671 20.8412 20.7466 21.1886 20.9784 21.7676Z" fill="url(#paint5_linear_1952_19163)"/>
<path d="M78.0582 15.7951V18.8294C76.7846 16.7549 74.6316 15.4235 71.9328 15.4235C67.6572 15.4235 64.1094 18.9532 64.1094 23.5357C64.1094 28.1182 67.6572 31.6479 71.9328 31.6479C74.6316 31.6479 76.7846 30.3165 78.0582 28.242V30.6571C78.0582 33.8153 75.9658 35.8588 72.4483 35.8588C69.1734 35.8588 67.7785 34.6203 67.0204 33.0412L65.2617 34.063C66.4443 36.4781 68.9611 37.8404 72.4483 37.8404C76.36 37.8404 80.0595 35.3634 80.0595 30.6571V15.7951H78.0582ZM72.0844 29.6663C68.7185 29.6663 66.1107 26.9725 66.1107 23.5357C66.1107 20.0989 68.7185 17.4051 72.0844 17.4051C75.4503 17.4051 78.0582 20.0989 78.0582 23.5357C78.0582 26.9725 75.4503 29.6663 72.0844 29.6663Z" fill="#A372DF"/>
<path d="M90.7559 31.6479C95.1831 31.6479 98.7309 28.1182 98.7309 23.5357C98.7309 18.9532 95.1831 15.4235 90.7559 15.4235C86.3286 15.4235 82.7808 18.9532 82.7808 23.5357C82.7808 28.1182 86.3286 31.6479 90.7559 31.6479ZM90.7559 29.6663C87.39 29.6663 84.7821 26.9725 84.7821 23.5357C84.7821 20.0989 87.39 17.4051 90.7559 17.4051C94.1218 17.4051 96.7296 20.0989 96.7296 23.5357C96.7296 26.9725 94.1218 29.6663 90.7559 29.6663Z" fill="#A372DF"/>
<path d="M108.539 31.6479C112.966 31.6479 116.514 28.1182 116.514 23.5357C116.514 18.9532 112.966 15.4235 108.539 15.4235C104.112 15.4235 100.564 18.9532 100.564 23.5357C100.564 28.1182 104.112 31.6479 108.539 31.6479ZM108.539 29.6663C105.173 29.6663 102.565 26.9725 102.565 23.5357C102.565 20.0989 105.173 17.4051 108.539 17.4051C111.905 17.4051 114.513 20.0989 114.513 23.5357C114.513 26.9725 111.905 29.6663 108.539 29.6663Z" fill="#A372DF"/>
<path d="M132.296 9.60254V18.8294C131.022 16.7549 128.869 15.4235 126.17 15.4235C121.895 15.4235 118.347 18.9532 118.347 23.5357C118.347 28.1182 121.895 31.6479 126.17 31.6479C128.869 31.6479 131.022 30.3165 132.296 28.242V31.2763H134.297V9.60254H132.296ZM126.322 29.6663C122.956 29.6663 120.348 26.9725 120.348 23.5357C120.348 20.0989 122.956 17.4051 126.322 17.4051C129.688 17.4051 132.296 20.0989 132.296 23.5357C132.296 26.9725 129.688 29.6663 126.322 29.6663Z" fill="#A372DF"/>
<path d="M148.844 15.7951L143.932 28.7684L138.231 15.7951H136.109L142.901 31.3692L142.507 32.3291C141.688 34.3416 140.324 35.7659 138.353 35.5492V37.4689C141.082 37.6856 143.326 35.673 144.478 32.7006L150.967 15.7951H148.844Z" fill="#A372DF"/>
<defs>
<linearGradient id="paint0_linear_1952_19163" x1="55.4791" y1="18.0746" x2="-6.77149" y2="18.0433" gradientUnits="userSpaceOnUse">
<stop stop-color="#E782FC"/>
<stop offset="1" stop-color="#80D7FF"/>
</linearGradient>
<linearGradient id="paint1_linear_1952_19163" x1="55.4791" y1="18.0746" x2="-6.77149" y2="18.0433" gradientUnits="userSpaceOnUse">
<stop stop-color="#E782FC"/>
<stop offset="1" stop-color="#80D7FF"/>
</linearGradient>
<linearGradient id="paint2_linear_1952_19163" x1="55.4791" y1="18.0746" x2="-6.77149" y2="18.0433" gradientUnits="userSpaceOnUse">
<stop stop-color="#E782FC"/>
<stop offset="1" stop-color="#80D7FF"/>
</linearGradient>
<linearGradient id="paint3_linear_1952_19163" x1="55.4791" y1="18.0746" x2="-6.77149" y2="18.0433" gradientUnits="userSpaceOnUse">
<stop stop-color="#E782FC"/>
<stop offset="1" stop-color="#80D7FF"/>
</linearGradient>
<linearGradient id="paint4_linear_1952_19163" x1="55.4791" y1="18.0746" x2="-6.77149" y2="18.0433" gradientUnits="userSpaceOnUse">
<stop stop-color="#E782FC"/>
<stop offset="1" stop-color="#80D7FF"/>
</linearGradient>
<linearGradient id="paint5_linear_1952_19163" x1="24.3393" y1="18.1284" x2="24.3393" y2="45.9184" gradientUnits="userSpaceOnUse">
<stop stop-color="#80D7FF"/>
<stop offset="1" stop-color="#E980FC"/>
</linearGradient>
</defs>
</svg>
