<svg preserveAspectRatio="none" width="100%" height="100%" overflow="visible" style="display: block;" viewBox="0 0 44 44" fill="none" xmlns="http://www.w3.org/2000/svg">
<g id="Union" filter="url(#filter0_ddig_1952_19194)">
<path d="M20.1505 20.5596V38.5606H11.1505C9.95719 38.5606 8.81274 38.086 7.96887 37.2422C7.12509 36.3984 6.65063 35.2539 6.65051 34.0606V20.5596H20.1505ZM36.6505 34.0606C36.6504 35.2539 36.1759 36.3984 35.3322 37.2422C34.4883 38.0861 33.3439 38.5605 32.1505 38.5606H23.1505V20.5606H36.6505V34.0606ZM13.7003 2.56061C15.379 2.63736 17.0052 3.16856 18.4054 4.09772C19.8056 5.02689 20.9276 6.31901 21.6505 7.836C22.3813 6.31477 23.5112 5.02 24.92 4.09088C26.3288 3.16189 27.9636 2.63322 29.6495 2.56061C31.0649 2.53335 32.4343 3.06272 33.463 4.03522C34.4918 5.0079 35.0975 6.34595 35.1495 7.7608C35.1207 8.56115 34.9183 9.34599 34.5568 10.0606H38.1495C38.5474 10.0606 38.9288 10.2188 39.2101 10.5001C39.4913 10.7814 39.6495 11.1628 39.6495 11.5606V16.0606C39.6495 16.4584 39.4913 16.8399 39.2101 17.1212C38.9288 17.4024 38.5473 17.5606 38.1495 17.5606H5.15051C4.75275 17.5606 4.37125 17.4024 4.08997 17.1212C3.80872 16.8399 3.65057 16.4584 3.65051 16.0606V11.5606C3.65051 11.1628 3.80874 10.7814 4.08997 10.5001C4.37126 10.2188 4.7527 10.0606 5.15051 10.0606H8.71887C8.37354 9.37645 8.17978 8.62526 8.15051 7.85944V7.7608C8.19983 6.36638 8.78804 5.04509 9.79114 4.07526C10.7942 3.10559 12.1343 2.56284 13.5294 2.56061H13.7003ZM13.5714 5.56061C12.9566 5.55403 12.3627 5.78367 11.9122 6.20221C11.4617 6.62089 11.1889 7.19679 11.1505 7.81061C11.1948 8.42475 11.4707 8.99922 11.923 9.41705C12.3754 9.83492 12.9702 10.0652 13.5861 10.0606H19.4357C18.4922 8.15713 16.6747 5.57269 13.5714 5.56061ZM29.6954 5.56061C26.6553 5.56085 24.8002 8.17218 23.8673 10.0606H29.7872C30.4015 10.0559 30.9906 9.81422 31.4308 9.3858C31.871 8.9573 32.1283 8.37479 32.1495 7.7608C32.0988 7.15015 31.8166 6.58204 31.3605 6.17291C30.9042 5.76375 30.3081 5.54471 29.6954 5.56061Z" fill="var(--fill-0, #B59CFC)"/>
<path d="M20.1505 20.5596V38.5606H11.1505C9.95719 38.5606 8.81274 38.086 7.96887 37.2422C7.12509 36.3984 6.65063 35.2539 6.65051 34.0606V20.5596H20.1505ZM36.6505 34.0606C36.6504 35.2539 36.1759 36.3984 35.3322 37.2422C34.4883 38.0861 33.3439 38.5605 32.1505 38.5606H23.1505V20.5606H36.6505V34.0606ZM13.7003 2.56061C15.379 2.63736 17.0052 3.16856 18.4054 4.09772C19.8056 5.02689 20.9276 6.31901 21.6505 7.836C22.3813 6.31477 23.5112 5.02 24.92 4.09088C26.3288 3.16189 27.9636 2.63322 29.6495 2.56061C31.0649 2.53335 32.4343 3.06272 33.463 4.03522C34.4918 5.0079 35.0975 6.34595 35.1495 7.7608C35.1207 8.56115 34.9183 9.34599 34.5568 10.0606H38.1495C38.5474 10.0606 38.9288 10.2188 39.2101 10.5001C39.4913 10.7814 39.6495 11.1628 39.6495 11.5606V16.0606C39.6495 16.4584 39.4913 16.8399 39.2101 17.1212C38.9288 17.4024 38.5473 17.5606 38.1495 17.5606H5.15051C4.75275 17.5606 4.37125 17.4024 4.08997 17.1212C3.80872 16.8399 3.65057 16.4584 3.65051 16.0606V11.5606C3.65051 11.1628 3.80874 10.7814 4.08997 10.5001C4.37126 10.2188 4.7527 10.0606 5.15051 10.0606H8.71887C8.37354 9.37645 8.17978 8.62526 8.15051 7.85944V7.7608C8.19983 6.36638 8.78804 5.04509 9.79114 4.07526C10.7942 3.10559 12.1343 2.56284 13.5294 2.56061H13.7003ZM13.5714 5.56061C12.9566 5.55403 12.3627 5.78367 11.9122 6.20221C11.4617 6.62089 11.1889 7.19679 11.1505 7.81061C11.1948 8.42475 11.4707 8.99922 11.923 9.41705C12.3754 9.83492 12.9702 10.0652 13.5861 10.0606H19.4357C18.4922 8.15713 16.6747 5.57269 13.5714 5.56061ZM29.6954 5.56061C26.6553 5.56085 24.8002 8.17218 23.8673 10.0606H29.7872C30.4015 10.0559 30.9906 9.81422 31.4308 9.3858C31.871 8.9573 32.1283 8.37479 32.1495 7.7608C32.0988 7.15015 31.8166 6.58204 31.3605 6.17291C30.9042 5.76375 30.3081 5.54471 29.6954 5.56061Z" fill="url(#paint0_linear_1952_19194)" fill-opacity="0.5" style="mix-blend-mode:overlay"/>
</g>
<defs>
<filter id="filter0_ddig_1952_19194" x="0" y="5.33346e-08" width="43.3001" height="43.302" filterUnits="userSpaceOnUse" color-interpolation-filters="sRGB">
<feFlood flood-opacity="0" result="BackgroundImageFix"/>
<feColorMatrix in="SourceAlpha" type="matrix" values="0 0 0 0 0 0 0 0 0 0 0 0 0 0 0 0 0 0 127 0" result="hardAlpha"/>
<feOffset dy="1.09091"/>
<feGaussianBlur stdDeviation="1.82526"/>
<feComposite in2="hardAlpha" operator="out"/>
<feColorMatrix type="matrix" values="0 0 0 0 1 0 0 0 0 1 0 0 0 0 1 0 0 0 0.7 0"/>
<feBlend mode="overlay" in2="BackgroundImageFix" result="effect1_dropShadow_1952_19194"/>
<feColorMatrix in="SourceAlpha" type="matrix" values="0 0 0 0 0 0 0 0 0 0 0 0 0 0 0 0 0 0 127 0" result="hardAlpha"/>
<feOffset dy="-1.09091"/>
<feGaussianBlur stdDeviation="0.727273"/>
<feComposite in2="hardAlpha" operator="out"/>
<feColorMatrix type="matrix" values="0 0 0 0 0.425984 0 0 0 0 0.277165 0 0 0 0 0.822835 0 0 0 1 0"/>
<feBlend mode="soft-light" in2="effect1_dropShadow_1952_19194" result="effect2_dropShadow_1952_19194"/>
<feBlend mode="normal" in="SourceGraphic" in2="effect2_dropShadow_1952_19194" result="shape"/>
<feColorMatrix in="SourceAlpha" type="matrix" values="0 0 0 0 0 0 0 0 0 0 0 0 0 0 0 0 0 0 127 0" result="hardAlpha"/>
<feOffset dx="0.5" dy="1"/>
<feGaussianBlur stdDeviation="0.75"/>
<feComposite in2="hardAlpha" operator="arithmetic" k2="-1" k3="1"/>
<feColorMatrix type="matrix" values="0 0 0 0 0 0 0 0 0 0 0 0 0 0 0 0 0 0 0.75 0"/>
<feBlend mode="soft-light" in2="shape" result="effect3_innerShadow_1952_19194"/>
<feTurbulence type="fractalNoise" baseFrequency="13.750001907348633 13.750001907348633" numOctaves="3" seed="1609" />
<feDisplacementMap in="effect3_innerShadow_1952_19194" scale="1.0181816816329956" xChannelSelector="R" yChannelSelector="G" result="displacedImage" width="100%" height="100%" />
<feMerge result="effect4_texture_1952_19194">
<feMergeNode in="displacedImage"/>
</feMerge>
</filter>
<linearGradient id="paint0_linear_1952_19194" x1="18.1625" y1="14.6067" x2="37.7872" y2="34.5485" gradientUnits="userSpaceOnUse">
<stop stop-opacity="0"/>
<stop offset="1"/>
</linearGradient>
</defs>
</svg>
