<svg preserveAspectRatio="none" width="100%" height="100%" overflow="visible" style="display: block;" viewBox="0 0 47 42" fill="none" xmlns="http://www.w3.org/2000/svg">
<g id="Union" filter="url(#filter0_ddig_1952_19203)">
<path d="M22.1281 6.64946C22.0138 7.4707 22.0283 8.30915 22.1759 9.13384C22.4489 10.658 23.1642 12.0687 24.2316 13.1905L24.2423 13.2022L31.3146 20.5499C31.646 20.8947 32.0426 21.172 32.4825 21.3594C32.8497 21.5158 33.2416 21.6044 33.6388 21.6309V24.3692C33.6387 26.6237 31.8035 28.4581 29.549 28.4581H20.4445L9.10266 36.5596V28.4581H7.73938C5.48505 28.4578 3.65056 26.6236 3.65051 24.3692V10.7383C3.65051 8.48391 5.48502 6.64967 7.73938 6.64946H22.1281ZM37.7814 2.55962C38.7952 2.55736 39.7872 2.853 40.6349 3.40923C41.4827 3.96554 42.1485 4.75835 42.5499 5.6895C42.9513 6.62063 43.0712 7.64921 42.8937 8.64751C42.7161 9.64577 42.2487 10.5701 41.5509 11.3057L41.546 11.3116L34.4718 18.6631C34.3947 18.7433 34.3017 18.8071 34.1993 18.8506C34.0971 18.8941 33.9872 18.917 33.8761 18.917C33.7648 18.917 33.6543 18.8942 33.5519 18.8506C33.4495 18.807 33.3566 18.7433 33.2794 18.6631L26.2062 11.3116C25.5068 10.5766 25.0383 9.65208 24.8595 8.65337C24.6807 7.65465 24.7994 6.62544 25.2003 5.69341C25.6012 4.76145 26.2665 3.96723 27.1144 3.41021C27.9625 2.85317 28.9562 2.55733 29.9708 2.55962C30.7122 2.55788 31.4452 2.71681 32.1193 3.02544C32.7934 3.33411 33.393 3.78525 33.8761 4.34771C34.3591 3.78539 34.958 3.33407 35.632 3.02544C36.3061 2.71677 37.0399 2.55783 37.7814 2.55962Z" fill="var(--fill-0, #B59CFC)"/>
<path d="M22.1281 6.64946C22.0138 7.4707 22.0283 8.30915 22.1759 9.13384C22.4489 10.658 23.1642 12.0687 24.2316 13.1905L24.2423 13.2022L31.3146 20.5499C31.646 20.8947 32.0426 21.172 32.4825 21.3594C32.8497 21.5158 33.2416 21.6044 33.6388 21.6309V24.3692C33.6387 26.6237 31.8035 28.4581 29.549 28.4581H20.4445L9.10266 36.5596V28.4581H7.73938C5.48505 28.4578 3.65056 26.6236 3.65051 24.3692V10.7383C3.65051 8.48391 5.48502 6.64967 7.73938 6.64946H22.1281ZM37.7814 2.55962C38.7952 2.55736 39.7872 2.853 40.6349 3.40923C41.4827 3.96554 42.1485 4.75835 42.5499 5.6895C42.9513 6.62063 43.0712 7.64921 42.8937 8.64751C42.7161 9.64577 42.2487 10.5701 41.5509 11.3057L41.546 11.3116L34.4718 18.6631C34.3947 18.7433 34.3017 18.8071 34.1993 18.8506C34.0971 18.8941 33.9872 18.917 33.8761 18.917C33.7648 18.917 33.6543 18.8942 33.5519 18.8506C33.4495 18.807 33.3566 18.7433 33.2794 18.6631L26.2062 11.3116C25.5068 10.5766 25.0383 9.65208 24.8595 8.65337C24.6807 7.65465 24.7994 6.62544 25.2003 5.69341C25.6012 4.76145 26.2665 3.96723 27.1144 3.41021C27.9625 2.85317 28.9562 2.55733 29.9708 2.55962C30.7122 2.55788 31.4452 2.71681 32.1193 3.02544C32.7934 3.33411 33.393 3.78525 33.8761 4.34771C34.3591 3.78539 34.958 3.33407 35.632 3.02544C36.3061 2.71677 37.0399 2.55783 37.7814 2.55962Z" fill="url(#paint0_linear_1952_19203)" fill-opacity="0.5" style="mix-blend-mode:overlay"/>
</g>
<defs>
<filter id="filter0_ddig_1952_19203" x="0" y="-1.12075e-07" width="46.6241" height="41.301" filterUnits="userSpaceOnUse" color-interpolation-filters="sRGB">
<feFlood flood-opacity="0" result="BackgroundImageFix"/>
<feColorMatrix in="SourceAlpha" type="matrix" values="0 0 0 0 0 0 0 0 0 0 0 0 0 0 0 0 0 0 127 0" result="hardAlpha"/>
<feOffset dy="1.09091"/>
<feGaussianBlur stdDeviation="1.82526"/>
<feComposite in2="hardAlpha" operator="out"/>
<feColorMatrix type="matrix" values="0 0 0 0 1 0 0 0 0 1 0 0 0 0 1 0 0 0 0.7 0"/>
<feBlend mode="overlay" in2="BackgroundImageFix" result="effect1_dropShadow_1952_19203"/>
<feColorMatrix in="SourceAlpha" type="matrix" values="0 0 0 0 0 0 0 0 0 0 0 0 0 0 0 0 0 0 127 0" result="hardAlpha"/>
<feOffset dy="-1.09091"/>
<feGaussianBlur stdDeviation="0.727273"/>
<feComposite in2="hardAlpha" operator="out"/>
<feColorMatrix type="matrix" values="0 0 0 0 0.425984 0 0 0 0 0.277165 0 0 0 0 0.822835 0 0 0 1 0"/>
<feBlend mode="soft-light" in2="effect1_dropShadow_1952_19203" result="effect2_dropShadow_1952_19203"/>
<feBlend mode="normal" in="SourceGraphic" in2="effect2_dropShadow_1952_19203" result="shape"/>
<feColorMatrix in="SourceAlpha" type="matrix" values="0 0 0 0 0 0 0 0 0 0 0 0 0 0 0 0 0 0 127 0" result="hardAlpha"/>
<feOffset dx="0.5" dy="1"/>
<feGaussianBlur stdDeviation="0.75"/>
<feComposite in2="hardAlpha" operator="arithmetic" k2="-1" k3="1"/>
<feColorMatrix type="matrix" values="0 0 0 0 0 0 0 0 0 0 0 0 0 0 0 0 0 0 0.75 0"/>
<feBlend mode="soft-light" in2="shape" result="effect3_innerShadow_1952_19203"/>
<feTurbulence type="fractalNoise" baseFrequency="13.750001907348633 13.750001907348633" numOctaves="3" seed="1609" />
<feDisplacementMap in="effect3_innerShadow_1952_19203" scale="1.0181816816329956" xChannelSelector="R" yChannelSelector="G" result="displacedImage" width="100%" height="100%" />
<feMerge result="effect4_texture_1952_19203">
<feMergeNode in="displacedImage"/>
</feMerge>
</filter>
<linearGradient id="paint0_linear_1952_19203" x1="6.37125" y1="24.1586" x2="41.539" y2="58.1122" gradientUnits="userSpaceOnUse">
<stop stop-opacity="0"/>
<stop offset="1"/>
</linearGradient>
</defs>
</svg>
