<svg width="16" height="16" viewBox="0 0 16 16" fill="none" xmlns="http://www.w3.org/2000/svg">
<g clip-path="url(#clip0_2042_1934)">
<path d="M2.7339 2.73333C2.71556 2.29304 2.87244 1.86342 3.17019 1.53855C3.46793 1.21367 3.88228 1.02002 4.3225 1C6.6729 1 7.50057 4.46667 7.50057 4.46667H4.3225C3.8822 4.44687 3.46772 4.25329 3.16992 3.92836C2.87213 3.60344 2.71533 3.17369 2.7339 2.73333Z" stroke="#7955F4" stroke-miterlimit="10" stroke-linejoin="round"/>
<path d="M12.2667 2.73333C12.285 2.29304 12.1281 1.86342 11.8304 1.53855C11.5326 1.21367 11.1183 1.02002 10.6781 1C8.32767 1 7.5 4.46667 7.5 4.46667H10.6781C11.1184 4.44687 11.5329 4.25329 11.8306 3.92836C12.1284 3.60344 12.2852 3.17369 12.2667 2.73333Z" stroke="#7955F4" stroke-miterlimit="10" stroke-linejoin="round"/>
<path d="M12.2658 8.80078V12.7008C12.2658 13.0456 12.1288 13.3762 11.885 13.62C11.6412 13.8638 11.3105 14.0008 10.9658 14.0008H4.03242C3.68764 14.0008 3.35698 13.8638 3.11318 13.62C2.86939 13.3762 2.73242 13.0456 2.73242 12.7008V8.80078" stroke="#7955F4" stroke-miterlimit="10" stroke-linejoin="round"/>
<path d="M14 4.4668H1V7.0668H14V4.4668Z" stroke="#7955F4" stroke-miterlimit="10" stroke-linejoin="round"/>
</g>
<defs>
<clipPath id="clip0_2042_1934">
<rect width="16" height="16" fill="white"/>
</clipPath>
</defs>
</svg>
