<svg width="14" height="14" viewBox="0 0 14 14" fill="none" xmlns="http://www.w3.org/2000/svg">
<path d="M12.8706 4.59197C11.9446 2.1982 9.6207 0.50073 6.90003 0.50073C5.48644 0.50073 4.17988 0.959088 3.12082 1.73532C2.46382 2.21687 2.24203 2.48991 1.96059 2.83103C1.52852 3.35472 1.17824 3.94798 0.929412 4.59197C0.651901 5.30819 0.5 6.08681 0.5 6.90076C0.5 7.74949 0.665179 8.55972 0.965263 9.3009C1.91464 11.6463 4.21414 13.3008 6.90003 13.3008C8.31361 13.3008 9.62017 12.8424 10.6792 12.0662C10.8 11.9776 11.5557 11.3142 11.8395 10.9705C12.2511 10.4718 12.5883 9.90956 12.8348 9.3009C13.1349 8.55972 13.3001 7.74949 13.3001 6.90076C13.3001 6.08681 13.1482 5.30819 12.8706 4.59197Z" stroke="#7955F4" stroke-miterlimit="10" stroke-linejoin="round"/>
<path d="M9.43321 6.90076C9.43321 7.74949 9.36788 8.55972 9.24891 9.3009C8.87314 11.6463 7.96279 13.3008 6.89922 13.3008C5.96418 13.3008 5.14758 12.0218 4.70834 10.1188C4.56387 9.49292 4.51542 9.20412 4.44198 8.46969C4.39179 7.96778 4.36523 7.44197 4.36523 6.90076C4.36523 6.08681 4.42552 5.30819 4.53519 4.59197C4.90193 2.1982 5.8221 0.50073 6.89922 0.50073C7.84834 0.50073 8.67583 1.81871 9.10975 3.76979C9.29932 4.40073 9.29932 4.90073 9.36522 5.42184C9.40957 5.8964 9.43321 6.39167 9.43321 6.90076Z" stroke="#7955F4" stroke-miterlimit="10" stroke-linejoin="round"/>
<path d="M12.957 4.5918H12.8714H8.30078" stroke="#7955F4" stroke-miterlimit="10" stroke-linejoin="round"/>
<path d="M8.42765 4.5918H4.53585H0.929261H0.84375" stroke="#7955F4" stroke-miterlimit="10" stroke-linejoin="round"/>
<path d="M12.9569 9.30078H12.8356H9.25051H5.37305" stroke="#7955F4" stroke-miterlimit="10" stroke-linejoin="round"/>
<path d="M5.7998 9.30078H0.965111H0.84375" stroke="#7955F4" stroke-miterlimit="10" stroke-linejoin="round"/>
</svg>
